<svg width="218" height="77" viewBox="0 0 218 77" fill="none" xmlns="http://www.w3.org/2000/svg">
<path d="M108.844 15.8447H106.967V1.22168C106.313 1.25023 105.606 1.33787 104.829 1.48633C102.103 2.00795 100.42 1.67703 99.6484 1.39551V0.285156C99.8357 0.370142 101.279 0.760871 104.05 0.475586C105.107 0.366794 106.126 0 107.453 0H108.844V15.8447ZM110.547 0C111.874 2.55014e-05 112.893 0.366798 113.95 0.475586C116.721 0.760913 118.165 0.369986 118.352 0.285156V1.39551C117.58 1.67703 115.897 2.00793 113.171 1.48633C112.394 1.33784 111.686 1.25022 111.032 1.22168V15.8447H109.156V0H110.547Z" fill="white"/>
<path d="M123.732 47.1391C125.865 43.88 127.999 40.6206 130.132 37.3615H131.559V49.8447H129.765L129.765 39.4872L123.269 49.5958L116.659 39.4981V49.8447H115.772L115.772 37.3615H117.332L123.732 47.1391ZM163.77 37.3615V43.6354C164.168 43.5143 164.662 43.4139 165.041 43.3404C166.078 43.1598 167.203 43.4382 168.164 43.7769C169.049 44.0887 169.759 44.1783 170.691 44.0575C171.164 43.9963 171.883 43.8788 172.34 43.6897C172.798 43.5004 172.993 43.2392 173.05 42.9347C173.056 42.9001 173.061 42.865 173.064 42.8297V37.3615H174.859V49.8447H173.064V44.3875C172.411 44.6045 171.516 44.8667 170.478 44.9557C169.604 45.0262 168.61 44.763 167.839 44.4914C166.564 44.0415 165.439 43.8317 164.222 44.5136C164.22 44.5168 164.039 44.6214 163.873 44.8075C163.84 44.8445 163.805 44.8838 163.77 44.9246V49.8447H161.976V37.3615H163.77ZM101.779 37.3223C104.777 37.3223 107.338 38.4782 107.775 41.1753H105.789C105.511 39.1962 103.983 37.9527 101.699 37.9526C98.3037 37.9526 96.9334 40.7724 96.9334 43.557C96.9334 46.5168 98.5222 49.2141 101.818 49.2141C103.943 49.2141 105.591 48.1457 105.968 46.0442H107.954C107.398 48.6538 105.035 49.8445 101.957 49.8445C97.1719 49.8444 94.8685 47.0073 94.8685 43.5395C94.8685 39.9844 97.2712 37.3223 101.779 37.3223ZM187.165 48.0255L195.717 37.3617H197.334V49.8445H195.312V39.1985L186.76 49.8445H185.143V37.3617H187.165V48.0255ZM218 49.8445H215.978V44.37H213.41L209.61 49.8445H207.426L211.53 44.2451C209.327 43.8707 207.952 42.658 207.952 40.8748C207.952 38.6815 210.014 37.3617 213.128 37.3617H218V49.8445ZM15.68 38.3586H8.73695V49.8434H6.9433V38.3586H0L0.358968 37.3601H15.3213L15.68 38.3586ZM50.2407 38.3586H43.2974V49.8434H41.5034V38.3586H34.5607L34.9191 37.3601H49.8817L50.2407 38.3586ZM81.1676 37.3601C83.5006 37.3602 85.9242 38.9258 85.9242 41.4937C85.9241 44.5689 83.8026 45.3762 81.0962 45.5764C79.5937 45.6873 77.7239 45.6268 76.3819 45.6268V49.8432H74.5877V37.3601H81.1676ZM31.6588 49.8429H29.8642L28.0093 46.2914C27.5303 46.5399 26.2457 46.9959 24.1412 46.2543C23.2813 45.9508 22.5882 45.8135 21.9791 45.8415C21.4664 45.8651 20.9991 46.0103 20.5242 46.2765L18.6497 49.8429H17.6721L24.5037 36.8447H24.8686L31.6588 49.8429ZM67.7765 49.8429H65.9825L64.127 46.2914C63.6481 46.5399 62.3631 46.9959 60.2592 46.2543C59.3992 45.9507 58.7059 45.8135 58.0971 45.8415C57.5842 45.8651 57.1172 46.0103 56.642 46.2765L54.7672 49.8429H53.7904L60.6211 36.8447H60.9866L67.7765 49.8429ZM154.448 49.8429H152.653L150.798 46.2914C150.319 46.5399 149.034 46.996 146.93 46.2543C146.07 45.9508 145.377 45.8135 144.768 45.8415C144.255 45.8651 143.788 46.0103 143.313 46.2765L141.439 49.8429H140.461L147.292 36.8447H147.657L154.448 49.8429ZM21.0896 45.2002C21.3614 45.1284 21.6412 45.086 21.9346 45.0724C22.7982 45.0327 23.6723 45.2598 24.4661 45.5395C26.5625 46.2784 27.5305 45.665 27.6411 45.5873L24.2742 39.1413L21.0896 45.2002ZM57.2074 45.2002C57.4795 45.1284 57.7593 45.086 58.0527 45.0724C58.916 45.0327 59.7903 45.2598 60.5838 45.5395C62.6803 46.2785 63.6482 45.6649 63.7594 45.5873L60.3919 39.1413L57.2074 45.2002ZM143.879 45.2002C144.15 45.1284 144.43 45.086 144.723 45.0724C145.587 45.0327 146.461 45.2598 147.255 45.5395C149.351 46.2784 150.319 45.665 150.43 45.5873L147.063 39.1413L143.879 45.2002ZM76.3819 44.8449L80.3848 44.8446C82.1612 44.838 84.2267 43.57 84.2268 41.4937C84.2268 39.4118 82.2617 38.1423 80.3703 38.1423H76.3819V44.8449ZM213.633 38.0571C211.45 38.0572 210.034 39.0736 210.034 40.8748C210.034 42.6758 211.429 43.6745 213.633 43.6745H215.978V38.0571H213.633Z" fill="white"/>
<path fill-rule="evenodd" clip-rule="evenodd" d="M90.8884 75.5115V75.9767H87.3037V70.8883H90.7797V71.3535H87.8396V73.1636H90.4611V73.6215H87.8396V75.5115H90.8884ZM95.4433 76.0203C95.0669 76.0203 94.706 75.9598 94.3607 75.8385C94.0156 75.7175 93.7488 75.5575 93.5606 75.3587L93.7706 74.9445C93.954 75.1286 94.1978 75.2776 94.502 75.3915C94.8061 75.5055 95.1199 75.5623 95.4433 75.5623C95.8972 75.5623 96.2376 75.4787 96.4645 75.3115C96.6913 75.1443 96.8049 74.9275 96.8049 74.6609C96.8049 74.4574 96.7433 74.2951 96.6202 74.174C96.497 74.0527 96.3461 73.9595 96.1676 73.8941C95.9889 73.8287 95.7402 73.7572 95.4217 73.6797C95.0402 73.5827 94.7362 73.4895 94.5092 73.3997C94.2823 73.3101 94.0879 73.1733 93.9262 72.9891C93.7645 72.805 93.6836 72.5554 93.6836 72.2404C93.6836 71.9835 93.7512 71.7498 93.8864 71.5389C94.0216 71.3281 94.2292 71.1598 94.5092 71.0338C94.7892 70.9077 95.1369 70.8447 95.552 70.8447C95.8416 70.8447 96.1252 70.8848 96.4029 70.9647C96.6805 71.0446 96.9207 71.1549 97.1234 71.2955L96.9424 71.7243C96.73 71.5837 96.5031 71.4784 96.2617 71.4081C96.0203 71.3378 95.7837 71.3027 95.552 71.3027C95.1078 71.3027 94.7735 71.3886 94.5491 71.5607C94.3245 71.7328 94.2123 71.9545 94.2123 72.2259C94.2123 72.4294 94.2739 72.593 94.3969 72.7165C94.5201 72.84 94.6745 72.9345 94.8604 73C95.0463 73.0654 95.2961 73.1369 95.6099 73.2144C95.9817 73.3066 96.2822 73.3973 96.5115 73.4871C96.7408 73.5767 96.9352 73.7124 97.0945 73.8941C97.2538 74.0758 97.3335 74.3217 97.3335 74.6319C97.3335 74.8887 97.2646 75.1226 97.127 75.3334C96.9895 75.5441 96.7782 75.7113 96.4934 75.835C96.2085 75.9585 95.8586 76.0203 95.4433 76.0203ZM101.382 71.3535H99.6001V70.8883H103.699V71.3535H101.917V75.9767H101.382V71.3535ZM106.393 76.013C106.287 76.013 106.196 75.9742 106.121 75.8966C106.046 75.8192 106.009 75.7247 106.009 75.6132C106.009 75.5017 106.046 75.4084 106.121 75.3334C106.196 75.2583 106.287 75.2207 106.393 75.2207C106.499 75.2207 106.591 75.2583 106.668 75.3334C106.745 75.4084 106.784 75.5017 106.784 75.6132C106.784 75.7247 106.745 75.8192 106.668 75.8966C106.591 75.9742 106.499 76.013 106.393 76.013ZM112.896 75.5115V75.9767H109.34V75.6059L111.447 73.5343C111.713 73.2726 111.893 73.046 111.987 72.8547C112.081 72.6632 112.128 72.4706 112.128 72.2767C112.128 71.9762 112.026 71.7425 111.82 71.5753C111.615 71.4081 111.322 71.3245 110.941 71.3245C110.347 71.3245 109.886 71.5135 109.557 71.8915L109.188 71.5717C109.386 71.339 109.638 71.1598 109.945 71.0338C110.251 70.9077 110.598 70.8447 110.984 70.8447C111.501 70.8447 111.91 70.9671 112.211 71.2118C112.513 71.4565 112.664 71.7921 112.664 72.2185C112.664 72.4802 112.606 72.7323 112.49 72.9746C112.374 73.2168 112.155 73.4955 111.831 73.8105L110.108 75.5115H112.896ZM117.465 76.0203C117.074 76.0203 116.725 75.9161 116.419 75.7077C116.112 75.4993 115.873 75.2001 115.702 74.8099C115.531 74.4199 115.445 73.9607 115.445 73.4325C115.445 72.9043 115.531 72.4451 115.702 72.0551C115.873 71.6649 116.112 71.3657 116.419 71.1573C116.725 70.9489 117.074 70.8447 117.465 70.8447C117.856 70.8447 118.205 70.9489 118.512 71.1573C118.818 71.3657 119.058 71.6649 119.232 72.0551C119.406 72.4451 119.493 72.9043 119.493 73.4325C119.493 73.9607 119.406 74.4199 119.232 74.8099C119.058 75.2001 118.818 75.4993 118.512 75.7077C118.205 75.9161 117.856 76.0203 117.465 76.0203ZM117.465 75.5405C117.76 75.5405 118.019 75.4581 118.244 75.2933C118.468 75.1286 118.643 74.8887 118.769 74.5738C118.894 74.2587 118.957 73.8784 118.957 73.4325C118.957 72.9866 118.894 72.6063 118.769 72.2913C118.643 71.9762 118.468 71.7365 118.244 71.5717C118.019 71.4068 117.76 71.3245 117.465 71.3245C117.171 71.3245 116.911 71.4068 116.687 71.5717C116.462 71.7365 116.287 71.9762 116.162 72.2913C116.036 72.6063 115.973 72.9866 115.973 73.4325C115.973 73.8784 116.036 74.2587 116.162 74.5738C116.287 74.8887 116.462 75.1286 116.687 75.2933C116.911 75.4581 117.171 75.5405 117.465 75.5405ZM123.541 70.8883V75.9767H123.02V71.3535H121.825V70.8883H123.541ZM128.668 76.0203C128.277 76.0203 127.928 75.9161 127.622 75.7077C127.315 75.4993 127.076 75.2001 126.905 74.8099C126.733 74.4199 126.648 73.9607 126.648 73.4325C126.648 72.9043 126.733 72.4451 126.905 72.0551C127.076 71.6649 127.315 71.3657 127.622 71.1573C127.928 70.9489 128.277 70.8447 128.668 70.8447C129.059 70.8447 129.408 70.9489 129.714 71.1573C130.021 71.3657 130.261 71.6649 130.435 72.0551C130.609 72.4451 130.696 72.9043 130.696 73.4325C130.696 73.9607 130.609 74.4199 130.435 74.8099C130.261 75.2001 130.021 75.4993 129.714 75.7077C129.408 75.9161 129.059 76.0203 128.668 76.0203ZM128.668 75.5405C128.963 75.5405 129.222 75.4581 129.446 75.2933C129.671 75.1286 129.846 74.8887 129.972 74.5738C130.097 74.2587 130.16 73.8784 130.16 73.4325C130.16 72.9866 130.097 72.6063 129.972 72.2913C129.846 71.9762 129.671 71.7365 129.446 71.5717C129.222 71.4068 128.963 71.3245 128.668 71.3245C128.374 71.3245 128.114 71.4068 127.89 71.5717C127.665 71.7365 127.49 71.9762 127.365 72.2913C127.239 72.6063 127.176 72.9866 127.176 73.4325C127.176 73.8784 127.239 74.2587 127.365 74.5738C127.49 74.8887 127.665 75.1286 127.89 75.2933C128.114 75.4581 128.374 75.5405 128.668 75.5405Z" fill="white"/>
</svg>
