<svg width="218" height="13" viewBox="0 0 218 13" fill="none" xmlns="http://www.w3.org/2000/svg">
<path d="M123.732 10.2944C125.865 7.03523 127.999 3.77585 130.132 0.516729H131.559V13H129.765L129.765 2.64243L123.269 12.751L116.659 2.6534V13H115.772L115.772 0.516729H117.332L123.732 10.2944ZM163.77 0.516729V6.79063C164.168 6.66957 164.662 6.56917 165.041 6.49569C166.078 6.31506 167.203 6.59343 168.164 6.93222C169.049 7.24402 169.759 7.3336 170.691 7.21279C171.164 7.15153 171.883 7.03409 172.34 6.84497C172.798 6.6557 172.993 6.39452 173.05 6.08999C173.056 6.05542 173.061 6.02028 173.064 5.98497V0.516729H174.859V13H173.064V7.54273C172.411 7.75973 171.516 8.02195 170.478 8.11093C169.604 8.1815 168.61 7.91827 167.839 7.64671C166.564 7.19681 165.439 6.98697 164.222 7.66891C164.22 7.67206 164.039 7.77664 163.873 7.9628C163.84 7.99974 163.805 8.03909 163.77 8.07984V13H161.976V0.516729H163.77ZM101.779 0.477544C104.777 0.477557 107.338 1.63348 107.775 4.33055H105.789C105.511 2.35146 103.983 1.10795 101.699 1.10791C98.3037 1.10791 96.9334 3.92763 96.9334 6.71226C96.9334 9.67212 98.5222 12.3694 101.818 12.3694C103.943 12.3693 105.591 11.3009 105.968 9.19951H107.954C107.398 11.809 105.035 12.9997 101.957 12.9997C97.1719 12.9997 94.8685 10.1626 94.8685 6.69475C94.8685 3.13962 97.2712 0.477544 101.779 0.477544ZM187.165 11.1807L195.717 0.516991H197.334V12.9997H195.312V2.35376L186.76 12.9997H185.143V0.516991H187.165V11.1807ZM218 12.9997H215.978V7.52523H213.41L209.61 12.9997H207.426L211.53 7.40036C209.327 7.02595 207.952 5.8133 207.952 4.03012C207.952 1.83682 210.014 0.517022 213.128 0.516991H218V12.9997ZM15.68 1.51388H8.73695V12.9987H6.9433V1.51388H0L0.358968 0.515423H15.3213L15.68 1.51388ZM50.2407 1.51388H43.2974V12.9987H41.5034V1.51388H34.5607L34.9191 0.515423H49.8817L50.2407 1.51388ZM81.1676 0.515423C83.5006 0.515433 85.9242 2.08103 85.9242 4.649C85.9241 7.72413 83.8026 8.53144 81.0962 8.73163C79.5937 8.84254 77.7239 8.78205 76.3819 8.78205V12.9984H74.5877V0.515423H81.1676ZM31.6588 12.9982H29.8642L28.0093 9.44664C27.5303 9.69515 26.2457 10.1512 24.1412 9.40954C23.2813 9.10604 22.5882 8.9688 21.9791 8.99679C21.4664 9.02034 20.9991 9.16558 20.5242 9.43175L18.6497 12.9982H17.6721L24.5037 0H24.8686L31.6588 12.9982ZM67.7765 12.9982H65.9825L64.127 9.44664C63.6481 9.69515 62.3631 10.1512 60.2592 9.40954C59.3992 9.10602 58.7059 8.96878 58.0971 8.99679C57.5842 9.02036 57.1172 9.16556 56.642 9.43175L54.7672 12.9982H53.7904L60.6211 0H60.9866L67.7765 12.9982ZM154.448 12.9982H152.653L150.798 9.44664C150.319 9.69516 149.034 10.1512 146.93 9.40954C146.07 9.10603 145.377 8.96879 144.768 8.99679C144.255 9.02034 143.788 9.16558 143.313 9.43175L141.439 12.9982H140.461L147.292 0H147.657L154.448 12.9982ZM21.0896 8.35544C21.3614 8.28367 21.6412 8.24125 21.9346 8.2277C22.7982 8.18797 23.6723 8.41505 24.4661 8.69479C26.5625 9.43369 27.5305 8.82026 27.6411 8.7426L24.2742 2.29655L21.0896 8.35544ZM57.2074 8.35544C57.4795 8.28366 57.7593 8.24125 58.0527 8.2277C58.916 8.18798 59.7903 8.41506 60.5838 8.69479C62.6803 9.43377 63.6482 8.82015 63.7594 8.7426L60.3919 2.29655L57.2074 8.35544ZM143.879 8.35544C144.15 8.28369 144.43 8.24125 144.723 8.2277C145.587 8.18797 146.461 8.41504 147.255 8.69479C149.351 9.43365 150.319 8.82027 150.43 8.7426L147.063 2.29655L143.879 8.35544ZM76.3819 8.00016L80.3848 7.9999C82.1612 7.99323 84.2267 6.72525 84.2268 4.649C84.2268 2.56703 82.2617 1.29757 80.3703 1.29757H76.3819V8.00016ZM213.633 1.21241C211.45 1.21244 210.034 2.22891 210.034 4.03012C210.034 5.83108 211.429 6.82978 213.633 6.82981H215.978V1.21241H213.633Z" fill="#212121"/>
</svg>
