<svg width="65" height="18" viewBox="0 0 65 18" fill="none" xmlns="http://www.w3.org/2000/svg">
<g clip-path="url(#clip0_2432_25115)">
<path fill-rule="evenodd" clip-rule="evenodd" d="M34.9572 5.6362C35.1118 5.79563 36.5031 9.59384 36.6486 10.0628C36.7934 10.5652 36.998 11.0472 37.2577 11.4977C37.7397 11.6102 37.7852 11.1131 37.9307 10.7193C38.7218 8.59038 39.922 5.48615 40.5222 3.39479C40.9405 2.38193 40.9768 2.10995 40.2221 2.10995C39.4674 2.10995 39.5492 2.61638 39.2491 3.27286C38.9854 4.52018 37.967 7.1555 37.5942 8.36531C37.5942 8.52471 37.5942 8.52471 37.4033 8.52471C36.7759 6.72409 36.0484 4.52018 35.3391 2.7383C35.1482 2.3913 34.8118 2.31628 34.5844 3.09468C34.2025 4.33262 33.6751 5.80502 33.2659 7.00544C33.2659 7.00544 32.7749 8.52471 32.7386 8.59974C32.4785 8.16853 32.2881 7.69657 32.1747 7.20236C31.611 5.7675 31.12 4.22008 30.638 2.78519C30.5198 2.51322 30.5199 2.35379 30.2561 2.19436C29.9918 2.09334 29.706 2.06742 29.4287 2.11933C28.6831 2.24125 29.1649 2.86022 29.3196 3.31976C30.2288 5.84253 31.2381 8.87175 32.2475 11.2726C32.2711 11.3321 32.3096 11.3841 32.3589 11.4234C32.4082 11.4627 32.4666 11.4879 32.5284 11.4964C32.5902 11.505 32.6531 11.4967 32.7107 11.4721C32.7684 11.4476 32.8187 11.408 32.8567 11.357C33.0022 11.0662 34.8481 5.6362 34.9572 5.6362Z" fill="#212121"/>
<path fill-rule="evenodd" clip-rule="evenodd" d="M0.549137 2.26928C0.511549 2.42551 0.524317 2.59011 0.585509 2.73819C0.740091 3.39468 0.285438 10.8786 0.403649 11.1787C0.771714 11.3494 1.18438 11.389 1.57665 11.2912C1.75851 11.0943 1.68577 10.9067 1.68577 10.5972C1.68577 9.27492 1.79489 7.99944 1.79489 6.63958C1.84035 6.13315 1.87672 5.78615 1.87672 5.47666C1.87672 5.16718 1.87672 5.2047 1.94946 5.12967C2.02221 5.05464 3.2134 7.1929 3.33161 7.42733C3.55894 7.88691 4.00449 8.59027 4.30457 9.13423C4.75922 9.98765 4.98655 9.40618 5.09566 9.20926C5.35936 8.86222 7.3962 5.17656 7.54168 5.10154C7.67811 5.25158 7.67811 8.93724 7.67811 9.20926C7.67811 11.2256 7.45076 11.4225 8.68744 11.3382C9.06933 11.3382 9.1057 11.0286 9.06933 10.6817C9.06933 10.0252 9.06933 9.28428 9.06933 8.62779C8.96927 6.95845 8.89653 5.05464 8.89653 3.39468C8.89653 3.19773 8.96927 2.45685 8.96927 2.3443C8.85797 2.21493 8.70715 2.12861 8.54181 2.09961C8.37653 2.07062 8.20651 2.1007 8.06 2.18487C7.79628 2.3443 7.72354 2.6913 7.53263 2.92576C6.76878 4.32313 5.74127 5.90807 5.02292 7.23041C4.75922 7.69935 4.75922 7.53987 4.53189 7.23041C4.04087 6.48952 3.40435 5.21407 2.9588 4.47319L2.04949 2.92576C1.9231 2.65685 1.76088 2.40747 1.56756 2.18487C1.31295 1.99731 0.812832 2.14736 0.549137 2.26928Z" fill="#212121"/>
<path fill-rule="evenodd" clip-rule="evenodd" d="M48.5313 6.61129C48.8532 6.34045 49.235 6.1559 49.6427 6.07409C50.0504 5.99227 50.4715 6.01573 50.8683 6.14237C52.0686 6.68631 52.2231 8.51506 51.6957 9.40606C51.4712 9.75324 51.1476 10.02 50.7698 10.1695C50.3919 10.319 49.9783 10.3439 49.5862 10.2407C49.2063 10.1634 48.8467 10.0035 48.5313 9.77175V6.61129ZM48.5313 5.28894C48.4747 4.26754 48.4747 3.24363 48.5313 2.22223C48.5313 1.8002 48.3859 1.72518 48.004 1.87523C47.0947 2.26912 47.0947 2.10969 47.222 2.96312C47.2947 3.39452 47.222 8.39316 47.222 9.09653C47.222 10.4845 47.031 10.8034 48.986 11.3848C49.5427 11.5053 50.1172 11.5084 50.6751 11.3939C51.2329 11.2795 51.7626 11.0499 52.2323 10.719C54.1509 9.09653 53.6235 4.51992 50.1227 4.86691C49.8175 4.88395 49.5137 4.92154 49.2133 4.97946C49.0952 5.01697 48.6496 5.28894 48.595 5.28894H48.5313Z" fill="#212121"/>
<path fill-rule="evenodd" clip-rule="evenodd" d="M22.016 11.2634C22.1582 10.7743 22.1985 10.2597 22.1342 9.75347C22.097 9.22269 22.097 8.68989 22.1342 8.15918C22.2434 8.15918 22.3615 8.3561 22.5889 8.59053C22.8162 8.82503 24.6893 10.8413 24.9894 11.0665C25.0942 11.1669 25.2204 11.2406 25.3578 11.2812C25.4953 11.322 25.6401 11.3288 25.7805 11.3009C26.0442 11.3009 26.4625 11.3009 26.608 11.1133C26.608 10.8413 26.0806 10.41 25.8533 10.1755C25.6259 9.94103 25.3349 9.64094 25.0713 9.32205C24.4929 8.7971 23.952 8.22981 23.4527 7.62458C23.4527 7.54019 25.5168 5.74892 25.8988 5.41131C26.0442 5.25187 26.1988 5.21436 26.1624 4.9799C25.6944 4.83099 25.1938 4.83099 24.7257 4.9799C24.5438 5.0643 23.2981 6.22722 22.9616 6.5367C22.8525 6.64924 22.207 7.35263 22.1342 7.31512C22.0251 6.95873 22.1342 2.11013 22.0614 1.83816C21.9887 1.56619 20.7066 1.99759 20.7429 2.46651C20.8142 2.79598 20.8508 3.13242 20.8521 3.46999V10.1755C20.8521 10.41 20.7793 11.1133 20.9339 11.2259C21.2877 11.3191 21.657 11.3319 22.016 11.2634Z" fill="#212121"/>
<path fill-rule="evenodd" clip-rule="evenodd" d="M12.1648 8.31894C12.5831 8.2064 13.9834 8.55337 14.047 8.93792C14.0834 9.35286 14.0834 9.77031 14.047 10.1852C13.7834 10.5322 11.9738 11.2262 11.3737 9.98826C11.2929 9.81243 11.2509 9.62019 11.2509 9.42558C11.2509 9.23096 11.2929 9.03872 11.3737 8.8629C11.4611 8.71991 11.5766 8.59751 11.713 8.50376C11.8493 8.41009 12.0033 8.34709 12.1648 8.31894ZM14.0834 7.85C13.7302 7.60859 13.3349 7.43982 12.9196 7.35296C12.4019 7.29384 11.8782 7.33198 11.3737 7.46552C10.949 7.59095 10.5744 7.85367 10.3053 8.21504C10.0361 8.57634 9.88639 9.01726 9.87828 9.47288C9.8701 9.9285 10.004 10.3748 10.26 10.7461C10.5162 11.1174 10.881 11.3942 11.301 11.5357C12.0202 11.7887 12.8004 11.7887 13.5197 11.5357C13.6743 11.4607 13.9743 11.2637 14.0834 11.2262C14.1925 11.1887 14.238 11.4982 14.3835 11.5732C14.529 11.6482 15.211 11.5732 15.402 11.3856C15.5929 11.1981 15.6293 11.2262 15.5111 10.9542C15.3351 10.5954 15.2716 10.1891 15.3292 9.79134V6.99659C15.3768 6.60087 15.283 6.20083 15.0655 5.87119C14.3471 4.39879 10.0189 4.98025 10.3644 6.22756C10.7099 7.47488 11.2737 5.79616 13.1832 6.03062C14.2107 6.14316 14.1016 7.15602 14.1016 7.85H14.0834Z" fill="#212121"/>
<path fill-rule="evenodd" clip-rule="evenodd" d="M58.6523 7.42782H55.5334C55.5751 7.04272 55.7455 6.68464 56.0152 6.41494C56.3097 6.14862 56.6796 5.98744 57.0701 5.9554C57.2734 5.93807 57.478 5.96319 57.6718 6.02925C57.8655 6.09532 58.0443 6.20098 58.1975 6.33991C58.3519 6.47082 58.4736 6.63783 58.5527 6.82705C58.6317 7.01627 58.6659 7.22226 58.6523 7.42782ZM55.4515 8.43128C55.6788 8.31875 59.0887 8.43128 59.707 8.43128C60.3254 8.43128 60.0435 6.33991 58.9159 5.48648C58.4553 5.13229 57.907 4.91968 57.3341 4.8732C56.7613 4.82673 56.1874 4.94829 55.6788 5.22385C55.1701 5.4994 54.7474 5.91771 54.4594 6.4305C54.1713 6.94327 54.0299 7.52963 54.0511 8.12175C54.0296 8.69696 54.1593 9.26742 54.4267 9.77264C54.694 10.2779 55.089 10.6991 55.5697 10.9915C56.5791 11.6949 59.2887 11.6574 59.6252 10.5695C60.0435 9.17216 59.0614 9.95055 58.7159 10.1006C58.4253 10.2235 58.119 10.3024 57.8066 10.3351C55.797 10.5695 55.306 8.74074 55.4515 8.43128Z" fill="#212121"/>
<path fill-rule="evenodd" clip-rule="evenodd" d="M41.8031 7.42778C41.835 7.02719 42.0116 6.65359 42.2979 6.38091C42.5841 6.10823 42.9593 5.95635 43.3489 5.95535C44.131 5.87095 45.0402 6.57432 44.8857 7.42778H41.8031ZM41.6485 8.36558C41.8394 8.36558 45.3767 8.36558 45.8677 8.36558C46.3587 8.36558 46.2769 8.05613 46.2405 7.67158C46.2139 7.15086 46.0567 6.64618 45.7841 6.20698C45.5116 5.76778 45.1331 5.40912 44.6858 5.16614C44.2385 4.92316 43.7376 4.80419 43.2323 4.82088C42.727 4.83757 42.2345 4.98935 41.8031 5.26136C41.3181 5.55689 40.9214 5.98461 40.6567 6.49751C40.3921 7.0104 40.2696 7.58863 40.3027 8.16866C40.2642 8.74121 40.3891 9.31289 40.6623 9.81293C40.9354 10.313 41.3447 10.7195 41.8394 10.9821C43.1216 11.798 45.6403 11.4511 45.8677 10.5226C45.8677 10.2506 46.0495 9.58476 45.6403 9.74417C45.1461 10.0324 44.6081 10.2322 44.0491 10.335C43.7511 10.3761 43.4482 10.3558 43.1579 10.2753C42.8676 10.1948 42.5956 10.0557 42.3578 9.86613C42.0304 9.59412 41.5031 8.77821 41.6485 8.36558Z" fill="#212121"/>
<path fill-rule="evenodd" clip-rule="evenodd" d="M62.071 11.3005C62.2983 11.066 62.2619 10.9535 62.2619 10.6064V9.66865C62.2619 8.43068 62.0347 6.37686 63.4259 6.06737C63.7259 5.99234 63.7987 6.25493 64.1806 6.17991C64.4058 5.97151 64.5749 5.70659 64.6716 5.41088C64.6716 4.82005 63.7623 4.70751 62.9349 5.09202C62.6711 5.21394 62.4529 5.63596 62.2619 5.67348C62.2619 5.32648 62.3347 5.17643 62.1074 4.86694C61.8159 4.89576 61.5338 4.98849 61.2799 5.13891C60.9071 5.32648 60.8343 5.32648 60.9071 5.7954C60.9798 6.26431 60.9071 9.48109 60.9071 10.2501C60.9435 11.4224 60.9435 11.3849 62.071 11.3005Z" fill="#212121"/>
<path fill-rule="evenodd" clip-rule="evenodd" d="M17.7351 11.263V11.188C17.8406 10.2355 17.868 9.27545 17.817 8.31821C17.817 7.57733 17.9988 6.37691 18.7899 6.14245C19.4264 5.90799 19.4628 6.52696 19.8811 6.14245C20.854 5.09207 19.5447 4.67004 18.7536 5.01705C17.9625 5.36405 18.0716 5.63602 17.8442 5.71104C17.826 5.55845 17.826 5.40411 17.8442 5.2515C17.8442 5.05456 17.7624 5.05456 17.6897 4.94202C17.3981 4.93957 17.1116 5.02074 16.8622 5.17648C16.4894 5.32653 16.3711 5.36405 16.4894 5.83296C16.5693 6.55195 16.5937 7.27637 16.5621 7.99932V10.1376C16.6439 11.3005 16.4894 11.3849 17.7351 11.263Z" fill="#212121"/>
<path fill-rule="evenodd" clip-rule="evenodd" d="M34.6935 12.5104C33.1923 12.7014 31.7164 13.0631 30.2924 13.5889C29.8469 13.7859 29.3831 13.8984 28.9375 14.0954C28.0283 14.4424 27.1735 14.7518 26.2733 15.1082C25.9733 15.2208 23.8272 15.8772 23.4545 15.9617C21.6359 16.4212 18.9079 16.9651 17.1712 16.1492C16.3437 15.7272 16.2618 17.0402 18.1441 17.5091C19.2449 17.7079 20.3744 17.6567 21.454 17.359C22.3633 17.162 23.4545 16.8151 24.3183 16.5431C25.1822 16.2711 26.2005 15.9617 27.1371 15.6896C27.3645 15.6053 27.5463 15.5302 27.81 15.4552L29.2013 15.0238C29.4649 14.9488 29.6559 14.8362 29.8833 14.7518L31.3199 14.4049C31.5836 14.3298 31.7746 14.2548 32.0019 14.1704C33.9057 13.7515 35.8476 13.544 37.7942 13.5514C38.2761 13.5514 38.9944 13.6734 39.4855 13.7484C40.3948 13.8609 40.1947 13.3638 39.5946 13.045C38.0342 12.4283 36.3444 12.244 34.6935 12.5104Z" fill="#BF6E34"/>
</g>
<defs>
<clipPath id="clip0_2432_25115">
<rect width="65" height="18" fill="white"/>
</clipPath>
</defs>
</svg>
