<svg width="13" height="20" viewBox="0 0 13 20" fill="none" xmlns="http://www.w3.org/2000/svg">
<path fill-rule="evenodd" clip-rule="evenodd" d="M10.8328 16.7311C11.8233 15.0605 12.3333 12.6922 12.3333 10C12.3333 7.30779 11.8233 4.93955 10.8328 3.26892C9.86003 1.62813 8.43629 0.666667 6.5 0.666667C4.56371 0.666667 3.13997 1.62813 2.16717 3.26892C1.17669 4.93955 0.666667 7.30779 0.666667 10C0.666667 12.6922 1.17669 15.0605 2.16717 16.7311C3.13997 18.3719 4.56371 19.3333 6.5 19.3333C8.43629 19.3333 9.86003 18.3719 10.8328 16.7311ZM6.5 20C10.9168 20 13 15.5228 13 10C13 4.47715 10.9168 0 6.5 0C2.08325 0 0 4.47715 0 10C0 15.5228 2.08325 20 6.5 20Z" fill="#212121"/>
<path d="M3.86328 8.83333V3.49805H4.74056L6.09408 6.94271C6.1275 7.02387 6.16688 7.12652 6.21224 7.25065C6.25998 7.3724 6.30773 7.49892 6.35547 7.63021C6.4056 7.75912 6.44976 7.87728 6.48796 7.9847C6.52615 7.87728 6.56912 7.75912 6.61686 7.63021C6.66699 7.49892 6.71474 7.3724 6.76009 7.25065C6.80783 7.12652 6.84722 7.02387 6.87826 6.94271L8.21029 3.49805H9.09115V8.83333H8.45736V5.73958C8.45736 5.54861 8.45975 5.33615 8.46452 5.10221C8.46929 4.86589 8.47407 4.63194 8.47884 4.40039C8.3762 4.68207 8.2819 4.93989 8.19597 5.17383C8.11003 5.40777 8.03841 5.59635 7.98112 5.73958L6.74219 8.83333H6.21224L4.96615 5.73958C4.91124 5.60352 4.84201 5.42567 4.75846 5.20605C4.67491 4.98644 4.58181 4.74414 4.47917 4.47917C4.48633 4.69879 4.4911 4.9184 4.49349 5.13802C4.49826 5.35764 4.50065 5.55816 4.50065 5.73958V8.83333H3.86328Z" fill="#212121"/>
<path d="M8.75786 9.68926C8.4031 10.1247 7.72665 10.502 6.47951 10.5539C5.3382 10.6015 4.86484 10.9078 4.66903 11.1294C4.56967 11.2418 4.52844 11.3466 4.51075 11.417C4.50176 11.4527 4.50143 11.4852 4.50041 11.5011H3.86328C3.86343 11.488 3.86393 11.4728 3.86502 11.4557C3.86821 11.4061 3.87645 11.3399 3.8959 11.2625C3.9351 11.1065 4.01928 10.9073 4.19398 10.7096C4.54631 10.3109 5.21576 9.97208 6.45312 9.92053C7.58465 9.87338 8.062 9.53967 8.26638 9.28882C8.37171 9.15955 8.41863 9.03594 8.43984 8.94861C8.45052 8.90468 8.45676 8.85326 8.45834 8.83203H9.09112C9.09102 8.84846 9.09036 8.86992 9.08844 8.89571C9.08461 8.94722 9.07572 9.01663 9.05588 9.09827C9.01609 9.26209 8.9321 9.4754 8.75786 9.68926Z" fill="#FFEC01"/>
<path d="M3.86328 11.5002V16.8354H4.74056L6.09408 13.3908C6.1275 13.3096 6.16688 13.207 6.21224 13.0828C6.25998 12.9611 6.30773 12.8346 6.35547 12.7033C6.4056 12.5744 6.44976 12.4562 6.48796 12.3488C6.52615 12.4562 6.56912 12.5744 6.61686 12.7033C6.66699 12.8346 6.71474 12.9611 6.76009 13.0828C6.80783 13.207 6.84722 13.3096 6.87826 13.3908L8.21029 16.8354H9.09115V11.5002H8.45736V14.5939C8.45736 14.7849 8.45975 14.9973 8.46452 15.2313C8.46929 15.4676 8.47407 15.7016 8.47884 15.9331C8.3762 15.6514 8.2819 15.3936 8.19597 15.1597C8.11003 14.9257 8.03841 14.7371 7.98112 14.5939L6.74219 11.5002H6.21224L4.96615 14.5939C4.91124 14.73 4.84201 14.9078 4.75846 15.1274C4.67491 15.3471 4.58181 15.5894 4.47917 15.8543C4.48633 15.6347 4.4911 15.4151 4.49349 15.1955C4.49826 14.9759 4.50065 14.7753 4.50065 14.5939V11.5002H3.86328Z" fill="#212121"/>
</svg>
