<svg width="153" height="41" viewBox="0 0 153 41" fill="none" xmlns="http://www.w3.org/2000/svg">
<g clip-path="url(#clip0_3057_54187)">
<path d="M108.055 17.1415C107.883 18.3627 105.222 19.6887 104.046 19.119C100.244 17.1563 108.782 12.0651 108.055 17.1415ZM111.105 14.1383C110.864 14.7446 112.709 14.7545 113.401 15.955C114.776 22.1098 112.186 30.7024 111.342 36.1428C107.384 29.9127 113.113 15.8379 107.869 14.2289C102.627 12.6197 98.6168 19.0545 103.119 20.2907C105.716 21.006 106.892 18.6294 108.291 19.119C108.554 26.5965 107.376 34.4442 111.382 39.8077C113.29 39.2776 113.147 36.8867 113.069 35.6342C112.656 28.7767 115.408 22.2991 115.525 15.6262C122.543 14.7337 137.571 16.3735 149.66 16.2931C151.537 16.2813 152.289 15.1721 152.406 13.9747C123.706 13.9249 124.691 14.933 111.105 14.1383Z" fill="#212121"/>
<path d="M57.1302 17.3622C54.3205 17.3298 51.5177 17.2427 48.7159 17.0693C45.8161 16.8906 41.9497 16.9835 38.8808 15.9757C38.7934 14.7427 38.7094 13.5231 38.6328 12.3325C39.467 12.0104 40.278 11.8344 41.3686 11.5404C43.4878 10.9725 45.6442 10.5192 47.8198 10.1356C53.8048 11.0241 58.9929 12.7643 59.1772 14.996C59.2437 15.7782 58.4416 16.5844 57.1302 17.3622ZM40.2707 22.0582L39.3294 22.1662C39.2218 20.66 39.1062 19.1033 38.9924 17.5424C39.3362 17.6079 39.6743 17.6695 39.9748 17.7293C43.6225 18.4342 47.4477 18.44 51.1547 18.5927C52.256 18.6368 53.3646 18.645 54.4817 18.6375C49.9164 20.4933 43.2545 21.9421 40.2707 22.0582ZM38.4649 9.49303H39.7431C40.9583 9.50395 42.223 9.56097 43.4906 9.65578C42.0365 9.99604 40.6753 10.3647 39.4895 10.7642C39.25 10.8463 38.923 10.9685 38.5572 11.1213C38.5252 10.5673 38.4913 10.0229 38.4649 9.49303ZM3.96703 16.9156C3.78847 16.6707 3.67135 16.4423 3.62756 16.2381C3.10954 13.8229 9.20447 11.9706 9.35845 11.9564C7.07441 12.8356 6.41966 13.8187 6.58722 14.8382C6.75433 15.8743 11.5829 22.4135 37.3701 17.168C37.4725 17.1979 37.5749 17.2227 37.6764 17.2495C37.901 18.8135 38.054 20.3438 38.0511 22.2592C15.4329 23.6489 6.11914 19.4647 3.96703 16.9156ZM36.5982 9.53778C36.6874 10.4021 36.7799 11.2034 36.8781 11.9358C35.0675 12.9485 33.3969 14.4363 34.9387 15.9359C35.2194 16.2125 35.5646 16.4356 35.9459 16.63C18.3703 19.6996 12.213 16.434 11.2628 14.3035C10.2817 12.1215 17.3662 10.2137 36.5982 9.53778ZM37.3899 15.3596C37.0648 15.1902 36.7535 15.0102 36.4637 14.8052C35.6445 14.2189 36.3827 13.558 37.0456 13.1387C37.1606 13.9333 37.2768 14.6655 37.3899 15.3596ZM95.6634 11.3395C95.6634 11.3395 93.9075 12.0685 94.7689 12.7975C95.3027 13.2449 97.2453 12.6979 98.877 13.4035C100.62 14.1573 100.479 17.5798 97.6263 18.2606C95.7959 18.6973 93.1794 17.6505 93.3684 16.6765C93.7328 14.7678 93.7682 13.8552 91.8474 15.9275C91.6983 16.0844 91.5899 16.2396 91.4935 16.3891C90.541 17.1945 89.4334 17.77 88.0759 17.8281C86.4992 17.892 85.9488 16.6632 86.6874 15.4493C87.1151 14.7445 86.5647 14.4115 86.0203 15.0126C85.0001 16.1385 78.5631 19.8016 77.4668 16.9189C77.4321 16.8434 77.3697 16.8036 77.2816 16.7994C72.2226 17.0826 67.1434 17.3009 62.064 17.3622C62.3075 17.085 62.4772 16.8018 62.5662 16.5237C62.6659 16.361 62.7155 16.2049 62.7178 16.0537C62.7229 14.2421 60.4887 12.8564 57.3996 11.8021C55.3023 11.0265 52.6753 10.3474 49.6949 9.82183C53.9135 9.16849 58.1903 8.76905 62.4123 8.41705C63.0205 8.36878 63.7317 6.86432 62.609 6.89021C61.7439 6.90922 52.9396 7.69299 45.4999 9.21743C43.6366 9.00154 41.6814 8.84545 39.671 8.76066C39.2618 8.72744 38.8407 8.70088 38.4225 8.67431C38.2884 5.98275 38.236 3.70776 38.342 2.30118C38.1881 0.856434 35.392 2.36942 35.4523 3.75423C35.4746 4.23741 36.2293 4.76294 36.2573 5.21042C36.3256 6.45096 36.4107 7.55837 36.5034 8.56977C32.003 8.38045 27.1707 8.52158 22.5532 8.94175C8.45287 9.92899 -1.15501 13.0581 0.885453 17.5466C1.00364 17.8171 1.18287 18.0689 1.38763 18.3138C5.8902 23.7519 29.633 23.8648 38.037 23.2205C38.0258 23.6755 38.0077 24.1489 37.9769 24.6503L37.7466 26.4636C37.8556 26.9501 39.7629 27.2341 39.6495 26.757C39.5763 25.6183 39.4901 24.3796 39.3993 23.101C51.0718 21.9486 57.7394 20.2582 60.7299 18.4342C63.4296 18.2956 66.1277 18.1194 68.7863 18.0249C70.5042 17.9634 72.8928 17.8588 74.6135 17.7725C75.8336 17.7094 76.5866 17.9476 77.3049 18.8451C78.1203 19.8557 79.438 19.2527 80.3272 19.0562C82.166 18.6477 83.7268 18.0729 85.0859 17.046C84.8992 18.0481 85.1461 19.0294 86.4706 19.2902C88.2641 19.6389 89.9236 18.8585 91.294 17.7658C91.7202 18.8401 93.5559 19.4837 95.3283 19.3234C98.8205 19.0046 100.109 17.6495 100.553 15.535C100.704 14.8101 101.092 12.3609 95.6634 11.3395Z" fill="#212121"/>
</g>
<defs>
<clipPath id="clip0_3057_54187">
<rect width="152.8" height="40.8164" fill="white"/>
</clipPath>
</defs>
</svg>
