<svg width="153" height="22" viewBox="0 0 153 22" fill="none" xmlns="http://www.w3.org/2000/svg">
<g clip-path="url(#clip0_3057_54175)">
<path d="M7.483 21.0874L0.638535 0.649933H5.00721L9.98602 16.3584L14.9367 0.649933H19.3354L12.4609 21.0874H7.483Z" fill="#212121"/>
<path d="M30.6332 0.649933C32.5925 0.649933 34.243 1.31203 35.5829 2.63633C36.9237 3.9588 37.5923 5.58537 37.5923 7.5114C37.5923 9.43754 36.9237 11.0631 35.5829 12.3884C34.243 13.7108 32.5933 14.372 30.6332 14.372H27.0497V21.0883H23.0318V0.649933H30.6332ZM30.6332 10.6066C31.4866 10.6066 32.1953 10.3107 32.7583 9.71614C33.3203 9.12247 33.6017 8.38731 33.6017 7.5114C33.6017 6.61731 33.3203 5.87569 32.7583 5.29215C32.1953 4.70677 31.4866 4.41634 30.6332 4.41634H27.0497V10.6056L30.6332 10.6066Z" fill="#212121"/>
<path d="M52.5591 21.0874L48.4538 13.993H45.3958V21.0874H41.3771V0.649933H49.5304C51.4132 0.649933 53.0154 1.31203 54.3353 2.63633C55.6543 3.95881 56.3155 5.55514 56.3155 7.42371C56.3155 8.68861 55.9558 9.86227 55.2371 10.9418C54.5193 12.0231 53.5674 12.8358 52.3842 13.3802L56.8967 21.0874H52.5591ZM45.3958 4.41635V10.4595H49.5304C50.2874 10.4595 50.9368 10.1636 51.4815 9.56904C52.0253 8.97538 52.2977 8.25937 52.2977 7.42285C52.2977 6.58632 52.0253 5.87483 51.4815 5.29129C50.9368 4.70581 50.2874 4.41538 49.5304 4.41538L45.3958 4.41635Z" fill="#212121"/>
<path d="M77.9245 18.4169C75.865 20.47 73.36 21.4956 70.4115 21.4956C67.4593 21.4956 64.9598 20.47 62.9113 18.4169C60.8636 16.3639 59.8397 13.8459 59.8397 10.8687C59.8397 7.8904 60.8636 5.37436 62.9113 3.32125C64.9598 1.26824 67.4593 0.239853 70.4115 0.239853C73.36 0.239853 75.865 1.26824 77.9245 3.32125C79.9804 5.37436 81.0106 7.8904 81.0106 10.8687C81.0106 13.8469 79.9804 16.3639 77.9245 18.4169ZM65.7213 15.6725C66.9829 16.9283 68.546 17.5566 70.4106 17.5566C72.2733 17.5566 73.8364 16.9283 75.098 15.6725C76.3605 14.4168 76.9909 12.8167 76.9909 10.8696C76.9909 8.92341 76.3605 7.31686 75.098 6.05292C73.8364 4.78802 72.2733 4.15508 70.4106 4.15508C68.5451 4.15508 66.9821 4.78802 65.7213 6.05292C64.4589 7.31783 63.8294 8.92427 63.8294 10.8696C63.8294 12.8167 64.4598 14.4168 65.7213 15.6725Z" fill="#212121"/>
<path d="M89.5984 17.2352H98.1912V21.0883H85.5814V0.649933H98.0438V4.50394H89.5993V8.85486H97.3174V12.6496H89.5993L89.5984 17.2352Z" fill="#212121"/>
<path d="M118.69 21.0874H114.061L106.78 11.5116V21.0874H102.762V0.649933H106.78V9.67138L113.77 0.649933H118.401L110.859 10.5755L118.69 21.0874Z" fill="#212121"/>
<path d="M135.901 0.649933V4.50394H130.397V21.0874H126.379V4.50394H120.904V0.649933H135.901Z" fill="#212121"/>
<path d="M143.327 17.2352H151.918V21.0883H139.309V0.649933H151.772V4.50394H143.327V8.85486H151.044V12.6496H143.327V17.2352Z" fill="#212121"/>
</g>
<defs>
<clipPath id="clip0_3057_54175">
<rect width="152.8" height="21.5211" fill="white"/>
</clipPath>
</defs>
</svg>
