<svg width="153" height="30" viewBox="0 0 153 30" fill="none" xmlns="http://www.w3.org/2000/svg">
<g clip-path="url(#clip0_3057_54201)">
<path d="M4.74467 28.8994H0V0.215668H4.74467V13.4792C5.60734 11.2147 8.62668 10.2442 10.352 10.2442C15.0967 10.2442 17.6847 13.3713 17.6847 18.763V28.8994H12.94V18.9787C12.94 16.3907 10.999 14.881 9.05801 14.881C7.11701 14.881 4.63684 15.9594 4.63684 19.0865V28.8994H4.74467Z" fill="#212121"/>
<path d="M35.8007 19.7335C35.8007 16.822 33.644 14.9888 31.056 14.9888C28.468 14.9888 26.3113 16.822 26.3113 19.7335C26.3113 22.7529 28.468 24.586 31.056 24.586C33.644 24.586 35.8007 22.645 35.8007 19.7335ZM21.5667 19.7335C21.5667 14.0183 25.88 10.2442 31.056 10.2442C36.232 10.2442 40.5453 13.9105 40.5453 19.7335C40.5453 25.4487 36.232 29.2229 31.056 29.2229C25.88 29.2229 21.5667 25.4487 21.5667 19.7335Z" fill="#212121"/>
<path d="M51.0052 10.6755H54.8872V14.4497H51.0052V28.8994H46.2605V14.4497H43.0255V10.6755H46.2605V3.66634H51.0052V10.6755Z" fill="#212121"/>
<path d="M86.698 28.8994H82.7082L78.6105 16.6063L74.7285 28.8994H70.7386L64.053 10.6755H69.1211L72.8953 22.1059L76.5617 10.6755H80.7672L84.4335 22.1059L88.0998 10.6755H93.168L86.698 28.8994Z" fill="#212121"/>
<path d="M105.353 24.6939C107.941 24.6939 110.314 22.8607 110.314 19.7335C110.314 16.6063 107.833 14.7732 105.353 14.7732C102.765 14.7732 100.285 16.7142 100.285 19.7335C100.393 22.645 102.765 24.6939 105.353 24.6939ZM110.421 26.527C109.235 28.3602 106.539 29.2229 104.814 29.2229C99.9616 29.2229 95.5404 25.5565 95.5404 19.7335C95.5404 13.9105 100.069 10.2442 104.814 10.2442C106.432 10.2442 109.127 10.8912 110.421 12.94V10.6755H115.166V28.8994H110.421V26.527Z" fill="#212121"/>
<path d="M124.116 0H119.372V28.8994H124.116V0Z" fill="#212121"/>
<path d="M134.253 0H129.508V28.8994H134.253V0Z" fill="#212121"/>
<path d="M138.566 15.6358C138.566 12.7243 141.693 10.2442 145.252 10.2442C148.702 10.2442 152.153 11.7538 152.369 15.9593H147.84C147.732 14.5575 146.438 14.1262 145.36 14.1262C144.173 14.1262 143.095 14.5575 143.095 15.9593C143.095 16.7142 143.958 17.2533 145.036 17.469L148.055 18.2238C152.261 19.3022 152.8 22.2137 152.8 23.7234C152.8 27.3897 149.134 29.3307 145.36 29.3307C141.801 29.3307 138.135 27.174 138.027 23.1842H142.448C142.556 24.4782 144.066 25.5565 145.791 25.4487C147.085 25.4487 148.163 24.6939 148.163 23.6155C148.163 22.645 147.516 22.2137 146.222 21.8902L143.742 21.2432C138.997 19.9492 138.566 17.7925 138.566 15.6358Z" fill="#212121"/>
</g>
<defs>
<clipPath id="clip0_3057_54201">
<rect width="152.8" height="29.3307" fill="white"/>
</clipPath>
</defs>
</svg>
