<svg width="153" height="14" viewBox="0 0 153 14" fill="none" xmlns="http://www.w3.org/2000/svg">
<g clip-path="url(#clip0_3057_54161)">
<g clip-path="url(#clip1_3057_54161)">
<path d="M71.2257 3.33187L71.2244 3.24137L68.5212 3.24093V3.42281H68.6962C69.0455 3.42281 69.3284 3.71923 69.331 4.08516C69.3362 4.40344 69.1978 4.89528 68.8765 5.73557L67.1722 10.2269C66.9617 10.7848 66.8102 11.1878 66.7727 11.3723L66.76 11.4349H66.6094L66.5981 11.3702C66.5575 11.1446 66.3798 10.5692 66.2318 10.1316L64.4803 5.04262C64.3187 4.57526 64.2449 4.27053 64.2454 4.05281H64.2345C64.2532 3.70218 64.5274 3.42325 64.8657 3.42325H65.0408V3.24093H61.6971V3.42281H61.7106C61.818 3.42281 61.9202 3.43374 62.0176 3.45429C62.3454 3.58238 62.5288 3.70174 62.7257 4.06286L62.7274 4.08997V4.0668C62.8409 4.27665 62.9597 4.56608 63.1147 4.98797L66.0528 13.0455H66.6085L69.6824 5.30231C70.2312 3.90241 70.3762 3.66676 70.8883 3.45997C70.9943 3.43592 71.1065 3.42368 71.2248 3.42325L71.2244 3.33231L71.2257 3.33187ZM56.5093 12.6205C55.7471 12.6205 53.2582 12.2913 53.2582 8.05665C53.2582 4.61373 55.0027 3.39177 56.4958 3.39177C58.0011 3.39177 59.7596 4.61373 59.7596 8.05665C59.7596 12.2913 57.2716 12.6205 56.5093 12.6205ZM56.5093 2.98911C54.2047 2.98911 51.821 4.88435 51.821 8.05665C51.821 11.176 53.5738 13.0381 56.5093 13.0381C59.1462 13.0381 61.2112 10.8503 61.2112 8.05665C61.2112 4.31993 58.7821 2.98911 56.5093 2.98911ZM29.9139 3.42325H30.0885C30.4395 3.42325 30.7237 3.72141 30.7237 4.08953L30.7285 8.22191C30.7285 12.3976 28.7046 12.3976 28.0397 12.3976C27.015 12.3976 25.2949 11.8992 25.2949 8.56686L25.2945 4.07685C25.301 3.71486 25.5818 3.42281 25.9284 3.42281H26.103V3.2405H23.2391V3.42281H23.4146C23.7643 3.42281 24.0477 3.7201 24.0494 4.08735V8.91224C24.0494 11.5206 25.3692 13.0166 27.6699 13.0166C30.1339 13.0166 31.3314 11.4677 31.3314 8.27918V4.08997C31.3314 3.72185 31.6156 3.42281 31.9666 3.42281H32.1412V3.2405H29.9139V3.42325ZM22.1892 12.5663C20.7812 11.9105 18.2609 7.97227 18.2609 7.97227L18.3766 7.94429C18.938 7.80832 20.769 7.23122 20.769 5.5196C20.769 3.48664 19.017 3.22651 17.4904 3.22651L14.4767 3.24093V3.42325H14.6518C15.0028 3.42325 15.287 3.72185 15.287 4.08997V11.9372C15.287 12.3053 15.0028 12.6044 14.6518 12.6044H14.4767V12.7867H17.7719V12.6044H17.1673C16.8167 12.6044 16.5325 12.3053 16.5325 11.9372V3.57189H16.9848C18.1094 3.57189 19.3999 3.82284 19.3999 5.77798C19.3999 6.57018 19.0917 7.89838 17.025 7.89838H16.7495C17.3166 8.70282 18.3059 10.0026 19.1829 11.1572C19.5942 11.6944 20.0023 12.2341 20.4071 12.7762V12.7867H22.428V12.6044H22.297L22.1892 12.5663ZM37.4783 7.50491L37.357 7.32784L39.2504 5.07628C39.6223 4.63253 39.9249 4.27184 40.1724 4.00297L40.1816 3.99335C40.461 3.69081 40.6705 3.50719 40.8277 3.45953L40.9552 3.42325H40.9827V3.24093H38.3781V3.42325H38.5527C38.8714 3.42325 39.1321 3.66939 39.1788 3.98898C39.1508 4.31032 38.864 4.78074 38.2628 5.49949L35.887 8.33383L35.8879 4.08953C35.8879 3.72141 36.1717 3.42281 36.5227 3.42281H36.6973V3.24093H33.8565V3.42281H34.0316C34.3241 3.42281 34.5677 3.63179 34.6415 3.91422L34.6651 8.12704L34.6415 12.113C34.5677 12.3954 34.3241 12.6044 34.0316 12.6044H33.857V12.7867H37.1269V12.6039H36.5227C36.1721 12.6039 35.8883 12.3062 35.8879 11.9385L35.887 9.08187L36.579 8.25951C36.579 8.25951 39.504 12.353 39.7974 12.781L39.8018 12.7867C39.8039 12.7897 42.013 12.7867 42.013 12.7867V12.6044L41.7982 12.6201C40.6692 12.1479 38.3598 8.78851 37.4783 7.50491ZM42.7447 4.73134H42.9189V4.33786V4.33917C42.9189 3.97105 43.3079 3.67201 43.7885 3.67201H46.0845L46.0818 11.9403C46.0805 12.3066 45.7972 12.6039 45.4475 12.6039H45.2724V12.7867H48.1394V12.6039H47.9648C47.6177 12.6039 47.337 12.3114 47.3304 11.949L47.33 3.67157L49.6268 3.67201C50.107 3.67201 50.4964 3.97105 50.4964 4.33917V4.73134H50.6698V3.2405H42.7451L42.7447 4.73134ZM93.3586 3.24093V4.73177H93.5319V4.3383L93.5323 4.33917C93.5323 3.97105 93.9217 3.67201 94.4015 3.67201H96.6979V11.0108C96.6979 11.1179 96.697 11.2141 96.6953 11.3055V11.9403C96.694 12.3075 96.4106 12.6044 96.0605 12.6044H95.8854V12.7867H98.7533V12.6044H98.5778C98.2311 12.6044 97.9504 12.3119 97.9439 11.9494V11.1266L97.9434 11.0112V3.67245H100.24C100.72 3.67245 101.11 3.97149 101.11 4.33961V4.73177H101.284V3.24093H93.3586ZM150.859 7.41922L149.97 6.98727C149.281 6.65063 148.366 6.0932 148.366 5.14755C148.366 4.05805 149.278 3.48751 150.179 3.48751C151.695 3.48751 152.195 4.34879 152.195 4.99059L152.186 5.21138L152.368 5.22056L152.362 3.47309C151.555 3.08398 150.646 3.04157 150.288 3.04157C148.898 3.04157 147.421 3.961 147.421 5.66475C147.421 6.70921 148.06 7.55081 149.321 8.1677L150.224 8.6132C150.945 8.97782 151.773 9.53218 151.773 10.5963C151.773 11.9416 150.697 12.544 149.631 12.544C148.866 12.544 148.092 12.2961 147.61 11.8476C147.441 11.6902 147.352 11.3553 147.352 11.0396L147.358 10.8814L147.178 10.8739V12.4225C147.791 12.6874 148.872 13.0188 149.508 13.0188C151.094 13.0188 152.8 12.0679 152.8 9.97769C152.8 8.8847 152.165 8.04747 150.859 7.41922ZM131.156 12.6205C130.394 12.6205 127.905 12.2909 127.905 8.05665C127.905 4.61329 129.649 3.39177 131.142 3.39177C132.648 3.39177 134.406 4.61329 134.406 8.05665C134.406 12.2909 131.918 12.6205 131.156 12.6205ZM131.156 2.98824C128.851 2.98824 126.468 4.88392 126.468 8.05665C126.468 11.176 128.221 13.0381 131.156 13.0381C133.792 13.0381 135.858 10.8499 135.858 8.05665C135.858 4.3195 133.429 2.98824 131.156 2.98824ZM89.0073 3.42499H89.2513C89.7315 3.42499 90.1205 3.72404 90.1205 4.09216L90.121 10.6816L84.6036 3.29121V3.2405H82.2282V3.42281L82.4644 3.42499C82.9437 3.42499 83.3323 3.72229 83.3336 4.09041L83.334 11.9372C83.334 12.3053 82.9577 12.6044 82.4941 12.6044H82.2125V12.7862H85.1056V12.6044H84.8306C84.3665 12.6044 83.9906 12.3053 83.9906 11.9372L83.9919 4.59231C83.9919 4.59231 89.0749 11.3964 89.5329 12.0185C89.9791 12.6262 90.121 12.9615 90.121 12.9615H90.7776L90.7789 4.09084C90.7797 3.72316 91.1556 3.42499 91.6188 3.42499H91.9004V3.24268H89.0073V3.42499ZM109.302 11.8589C109.218 12.1558 108.886 12.3779 108.487 12.3792H105.408L105.408 7.9714H108.577V7.53988H105.408V3.67201H108.221C108.701 3.67201 109.09 3.97105 109.09 4.33917V4.73177H109.264V3.24093L103.178 3.24312V3.42543H103.304C103.744 3.42543 104.104 3.67726 104.162 4.00297L104.159 12.0723C104.093 12.3871 103.749 12.628 103.334 12.628V12.8103H109.476V11.441H109.302V11.8589ZM123.736 3.2405H122.491L122.542 8.09949L122.488 12.7862H123.737L123.676 8.09949L123.736 3.2405ZM119.806 12.5663C118.399 11.9105 115.878 7.97227 115.878 7.97227L115.994 7.94429C116.555 7.80832 118.387 7.23122 118.387 5.5196C118.387 3.48664 116.634 3.22651 115.108 3.22651L112.094 3.24093V3.42325H112.269C112.62 3.42325 112.904 3.72185 112.904 4.08997V11.9372C112.904 12.3053 112.62 12.6044 112.269 12.6044H112.094V12.7867H115.389V12.6044H114.785C114.434 12.6044 114.15 12.3053 114.15 11.9372V3.57189H114.602C115.727 3.57189 117.017 3.82284 117.017 5.77798C117.017 6.57018 116.709 7.89838 114.643 7.89838H114.367C114.934 8.70282 115.923 10.0026 116.8 11.1572C117.211 11.6947 117.619 12.2343 118.024 12.7762V12.7867H120.045V12.6044H119.914L119.806 12.5663ZM145.497 12.5663C144.089 11.9105 141.569 7.97227 141.569 7.97227L141.685 7.94429C142.247 7.80832 144.078 7.23122 144.078 5.5196C144.078 3.48664 142.326 3.22651 140.799 3.22651L137.785 3.24093V3.42325H137.96C138.311 3.42325 138.595 3.72185 138.595 4.08997V11.9372C138.595 12.3053 138.311 12.6044 137.96 12.6044H137.785V12.7867H141.08V12.6044H140.476C140.125 12.6044 139.841 12.3053 139.841 11.9372V3.57189H140.293C141.418 3.57189 142.709 3.82284 142.709 5.77798C142.709 6.57018 142.4 7.89838 140.334 7.89838H140.058C140.625 8.70282 141.614 10.0026 142.492 11.1572C142.903 11.6947 143.311 12.2343 143.716 12.7762V12.7867H145.736V12.6044H145.606L145.497 12.5663ZM6.93362 3.42325H7.10869C7.45926 3.42325 7.76005 3.72141 7.76049 4.08953L7.81288 7.26576C7.76485 7.29068 7.71247 7.31342 7.65222 7.32697C7.62864 7.37331 7.6007 7.3532 7.56752 7.3414C7.55006 7.33527 7.53085 7.3309 7.5099 7.34227C7.51208 7.34358 7.51426 7.34489 7.51557 7.34664C7.64 7.42884 7.41734 7.53158 7.57495 7.58185C7.55967 7.55125 7.55137 7.53595 7.55879 7.5119C7.61249 7.54251 7.68933 7.57967 7.71334 7.62601C7.63345 7.68722 7.61424 7.55606 7.57975 7.61464C7.53085 7.59847 7.47934 7.58491 7.45533 7.55606C7.44755 7.60632 7.42909 7.65433 7.40119 7.69684C7.36321 7.63694 7.23529 7.63694 7.19469 7.58754L7.19207 7.60196C7.18101 7.59619 7.16928 7.59178 7.15715 7.58885L7.17024 7.67017C7.16531 7.68089 7.15992 7.69139 7.15409 7.70164C7.13139 7.69727 7.10476 7.69072 7.0921 7.6658C7.10035 7.69155 7.11508 7.71473 7.13488 7.73312C7.09559 7.79433 7.05281 7.84548 7.05019 7.89926C6.99736 7.83586 7.0109 7.77466 6.97728 7.68853C6.98514 7.66448 6.98208 7.64175 6.94803 7.62645C6.95004 7.62241 6.95305 7.61895 6.95676 7.61639L6.94192 7.6177L6.94628 7.62557C6.93817 7.6224 6.92986 7.61977 6.9214 7.6177L6.93843 7.72613C6.91529 7.7187 6.87731 7.71957 6.86159 7.68853C6.86577 7.70309 6.8729 7.71664 6.88254 7.72831C6.84762 7.71788 6.81471 7.70162 6.78519 7.68022C6.79086 7.66273 6.79654 7.64918 6.80134 7.6365L6.81531 7.63519L6.80222 7.63475C6.81924 7.59235 6.82797 7.5683 6.78213 7.51015L6.65946 7.59759C6.6874 7.63738 6.71534 7.67279 6.7424 7.70864C6.75288 7.7305 6.76685 7.75323 6.77165 7.77597C6.70311 7.75411 6.64199 7.74711 6.58044 7.70164C6.5842 7.68905 6.58857 7.67665 6.59353 7.66448L6.67736 7.67366L6.6075 7.62208C6.60903 7.60969 6.60706 7.59712 6.60183 7.58579L6.60925 7.58142L6.59615 7.57355C6.59056 7.56393 6.58429 7.55472 6.57738 7.546L6.56472 7.55475L6.4582 7.49135L6.42764 7.63563C6.41591 7.63447 6.40426 7.63271 6.39271 7.63038L6.38878 7.62732L6.41891 7.61115L6.28051 7.52808L6.27484 7.55606C6.26347 7.5376 6.25382 7.51814 6.24602 7.49791C6.23947 7.52677 6.22114 7.55912 6.23642 7.58841L6.16962 7.58142L6.18709 7.647C6.16671 7.64001 6.14809 7.6287 6.13249 7.61384C6.11689 7.59897 6.10469 7.5809 6.09672 7.56087C6.12291 7.52065 6.14736 7.47562 6.19276 7.50447C6.10807 7.37899 6.08231 7.32872 5.98059 7.21155C5.97186 7.29899 5.93038 7.30686 5.88716 7.32566C5.87235 7.30761 5.85721 7.28983 5.84176 7.27232C5.82866 7.39692 5.7444 7.34358 5.69245 7.43015C5.74702 7.49966 5.87668 7.52764 5.87145 7.62907L5.84787 7.62164C5.92907 7.6894 5.94697 7.56131 5.99543 7.53639C6.00678 7.55475 6.01377 7.57573 6.01289 7.60109L5.98757 7.59322C5.99892 7.60196 6.0094 7.60852 6.01901 7.61158L6.01508 7.61115L6.05611 7.76591C6.10283 7.74056 6.14605 7.69596 6.19756 7.68765L6.21415 7.75017C6.23598 7.73881 6.2565 7.72351 6.27746 7.7082C6.28789 7.71453 6.29769 7.72185 6.30671 7.73006C6.29623 7.81444 6.32155 7.85204 6.3639 7.86734C6.39096 7.92811 6.43506 7.97533 6.33334 7.94254L6.32286 7.9609C6.30103 7.90144 6.26174 7.89663 6.23293 7.88658L6.23205 7.82581L6.20149 7.84199C6.20438 7.81191 6.21174 7.78244 6.22332 7.75455C6.17661 7.7799 6.17443 7.81575 6.18534 7.85073L6.16657 7.86122L6.22332 7.93773C6.22638 7.95391 6.21415 7.95828 6.16569 7.94254C6.09148 8.06058 6.22681 7.9491 6.21328 8.03523C6.23205 7.97314 6.26305 7.93554 6.31238 7.98364C6.30452 8.00593 6.31544 8.00812 6.33203 8.00681C6.33291 8.00754 6.33364 8.00843 6.33421 8.00943V8.00637C6.3591 8.00418 6.39271 7.99632 6.38529 8.04353C6.40886 7.96659 6.44947 7.92374 6.51757 8.01555C6.50011 7.88133 6.42633 7.89663 6.3914 7.87477C6.44816 7.88352 6.52456 7.86953 6.59397 7.87084C6.611 7.88133 6.62628 7.89051 6.64461 7.90276C6.64156 7.89226 6.63588 7.88308 6.63152 7.87346C6.66792 7.87595 6.70226 7.89128 6.72843 7.91675L6.70399 7.86865C6.72407 7.8669 6.74328 7.86559 6.76292 7.86516C6.78475 7.88745 6.79785 7.91325 6.85067 7.92986C6.82868 7.91227 6.81105 7.88983 6.79916 7.86428H6.80047L6.85548 7.89926C6.85198 7.88789 6.84587 7.87784 6.84151 7.86734C6.88106 7.8706 6.91832 7.88726 6.94716 7.91456L6.91747 7.85641L6.96418 7.84067C6.9978 7.86428 7.00653 7.89445 7.0515 7.91718C7.05673 7.94748 7.07213 7.97509 7.09515 7.99544C7.13113 7.95092 7.15678 7.89896 7.17024 7.8433L7.25232 7.81532C7.21477 7.81313 7.19426 7.80614 7.1829 7.79608C7.19688 7.75236 7.22132 7.71039 7.30209 7.64918C7.34182 7.72657 7.34313 7.80395 7.26847 7.88308C7.28026 7.88396 7.2903 7.88614 7.2986 7.88877C7.29721 7.90501 7.29913 7.92136 7.30423 7.93684C7.30934 7.95232 7.31752 7.9666 7.32828 7.97883C7.31912 8.02692 7.30384 8.08244 7.33352 8.1231L7.3571 7.98582C7.38401 7.94978 7.40495 7.90963 7.41909 7.8669L7.49767 7.91806L7.44223 7.81007C7.48085 7.81998 7.51698 7.83785 7.54832 7.86253C7.54395 7.86778 7.54046 7.87303 7.53522 7.87783C7.68496 7.88396 7.53827 8.04747 7.60682 8.13972L7.64611 7.908C7.65237 7.90863 7.6587 7.90834 7.66488 7.90713C7.66895 7.89514 7.67054 7.88245 7.66956 7.86982C7.66859 7.85719 7.66506 7.8449 7.6592 7.83368L7.71596 7.87084C7.72513 7.91587 7.73211 7.96484 7.74259 8.02211C7.78799 7.99806 7.81812 7.98233 7.81768 7.94341L7.82423 7.94604L7.8251 8.01337L7.82423 8.07457C7.81369 8.069 7.80423 8.0616 7.79629 8.05271C7.80109 8.06714 7.81157 8.07457 7.82423 8.08069L7.76049 11.9376V11.9368C7.76049 12.3053 7.45926 12.6039 7.10869 12.6039H6.93406V12.7867L10.231 12.7862V12.5961L9.62683 12.6039C9.27626 12.6039 8.99206 12.3053 8.99206 11.9368V8.53407C9.07937 8.55855 9.00166 8.67309 9.06453 8.72862L9.02611 8.72949C9.11779 8.72031 9.11211 8.8213 9.15839 8.87464C9.17061 8.71113 9.24134 8.84972 9.23959 8.73343L9.30202 8.81781L9.28718 8.82568C9.32778 8.98044 9.39457 8.88557 9.47141 8.92361C9.50197 8.91617 9.53122 8.90612 9.56091 8.8965C9.56902 8.919 9.58082 8.93998 9.59583 8.95858C9.59933 8.91311 9.60675 8.88951 9.61592 8.87683C9.62727 8.87246 9.63818 8.86765 9.6491 8.8624C9.66088 8.86284 9.6718 8.86371 9.67791 8.85016L9.70847 8.83704L9.75213 8.89694L9.73597 8.90568C9.78007 9.074 9.85297 8.97126 9.9368 9.01192C10.2917 8.92929 10.5943 8.66042 10.823 8.45318L10.9234 8.52751C11.0221 8.44881 11.1705 8.36662 11.2679 8.26519L11.8381 8.27087V7.92199C11.9066 7.84548 11.9751 7.77072 12.0188 7.60022C11.8865 7.62776 11.9586 7.48261 11.8499 7.43408L11.7494 7.40173L11.8787 7.65355C11.8377 7.66219 11.795 7.656 11.7582 7.63607C11.7669 7.60852 11.7783 7.57836 11.7608 7.54338C11.7743 7.60109 11.7385 7.60065 11.6984 7.5941C11.6285 7.53464 11.5683 7.45988 11.4609 7.49135L11.4561 7.5119C11.4275 7.50332 11.3985 7.49617 11.3692 7.49048C11.4041 7.51802 11.4216 7.59235 11.4504 7.65049L11.4565 7.63126C11.4696 7.67935 11.4879 7.71389 11.4425 7.78996L11.3172 7.79127C11.3462 7.74017 11.368 7.68529 11.3818 7.6282C11.3718 7.63031 11.3615 7.63119 11.3513 7.63082C11.3194 7.46775 11.3164 7.53551 11.2094 7.32697C11.174 7.36894 11.2173 7.41922 11.2618 7.47911C11.2567 7.47561 11.2509 7.47346 11.2448 7.47285C11.2387 7.47223 11.2325 7.47319 11.2269 7.47562L11.2696 7.48873C11.3002 7.5307 11.3295 7.57704 11.3312 7.62732C11.2788 7.60721 11.3085 7.5119 11.2269 7.47562L11.1347 7.44589L11.1588 7.4931L11.1457 7.48873L11.1976 7.58972C11.0728 7.59235 11.054 7.47387 11.0946 7.38818C10.9038 7.42577 10.9745 7.19581 10.8278 7.31691C10.8785 7.37506 10.9134 7.48523 10.9632 7.50054L10.8973 7.49354L10.9117 7.52239C10.8974 7.52257 10.8833 7.52477 10.8697 7.52895C10.8658 7.54181 10.8629 7.55497 10.861 7.5683C10.8016 7.51496 10.9029 7.32347 10.7039 7.36151C10.7706 7.36894 10.7218 7.43802 10.706 7.48873C10.6999 7.47999 10.6929 7.47255 10.6864 7.46468C10.6696 7.43603 10.6538 7.40687 10.6388 7.37725C10.6319 7.385 10.6277 7.39485 10.627 7.40523C10.5615 7.35145 10.503 7.3191 10.5187 7.20412C10.5746 7.19013 10.5895 7.23516 10.6113 7.27582C10.6041 7.25203 10.6008 7.22721 10.6017 7.20237C10.4393 7.13854 10.4751 7.36544 10.3769 7.34708C10.3732 7.34317 10.3687 7.34016 10.3637 7.33826C10.3587 7.33637 10.3534 7.33564 10.348 7.33615L10.3345 7.32872L10.3336 7.33965C10.3172 7.34706 10.3019 7.35678 10.2882 7.3685C10.2969 7.37876 10.3049 7.38957 10.3122 7.40085C10.2451 7.36487 10.1712 7.34342 10.0953 7.3379C10.0935 7.33551 10.0919 7.33303 10.0905 7.33047C10.0837 7.30868 10.0806 7.28593 10.0813 7.26314C10.0123 7.23603 9.98264 7.26663 9.96124 7.30511C9.9287 7.29184 9.8986 7.27322 9.87218 7.25002L9.8425 7.38293L9.83638 7.37943L9.83507 7.41484L9.83377 7.42009C9.80582 7.27144 9.72157 7.25221 9.63774 7.18051C9.58012 7.19493 9.52205 7.20761 9.46399 7.22204L9.45439 7.22423L9.46312 7.2216C9.42426 7.20761 9.3937 7.18663 9.43911 7.13941C9.37362 7.17395 9.40069 7.18663 9.36314 7.25002L9.36183 7.2509C9.32691 7.26226 9.29329 7.27582 9.26055 7.29112C9.24047 7.27625 9.21864 7.26139 9.19724 7.24303C9.17174 7.24931 9.14612 7.25514 9.12041 7.26051C9.05405 7.19319 9.03528 7.06334 8.99206 6.98639V3.67157H11.6534C12.004 3.67157 12.2882 3.97061 12.2882 4.33873V4.5617H12.4619V3.24006H6.93362V3.42237V3.42325ZM2.79231 7.55475C2.73992 7.50447 2.8722 7.3309 2.68142 7.39998C2.68229 7.46031 2.73381 7.5272 2.79231 7.55475Z" fill="#212121"/>
<path d="M5.95844 7.94828C5.94128 7.97664 5.93049 8.01047 5.99767 8.02489L5.95844 7.94828Z" fill="#212121"/>
<path d="M5.9365 7.908L5.95702 7.94822C5.97535 7.91893 6.00198 7.89445 5.9365 7.908ZM11.9577 7.4402L12.0048 7.45026C11.9984 7.44479 11.9908 7.44101 11.9825 7.43925C11.9743 7.4375 11.9658 7.43782 11.9577 7.4402ZM12.2934 7.64568C12.217 7.49704 12.1236 7.47518 12.0048 7.45026C12.0428 7.48042 12.0616 7.56174 12.0935 7.62426L12.1328 7.49616C12.258 7.53638 12.2279 7.7235 12.1297 7.77597C12.2463 7.79914 12.2432 7.62994 12.3611 7.73793L12.3589 7.61115L12.4248 7.66623C12.4056 7.62339 12.465 7.57224 12.4318 7.50753C12.4676 7.65967 12.1899 7.44414 12.2934 7.64568ZM6.22551 7.44501C6.23249 7.46556 6.23948 7.48086 6.24603 7.49791C6.25039 7.47736 6.24952 7.45856 6.22507 7.44501H6.22551ZM6.95676 7.61639L7.04146 7.60765C6.99606 7.60415 6.96986 7.60852 6.95676 7.61639ZM6.08406 7.90494L6.10632 7.94866C6.12641 7.91674 6.15566 7.89008 6.08449 7.90494H6.08406ZM6.10632 7.94954C6.0893 7.97664 6.07882 8.00856 6.14387 8.02298L6.10632 7.94954ZM6.86421 7.46731C6.83059 7.44239 6.82885 7.35757 6.7376 7.34227C6.82972 7.39998 6.75638 7.46075 6.86421 7.46731ZM6.57433 7.44807C6.57476 7.43277 6.55686 7.42621 6.54202 7.42403L6.53504 7.42315C6.52456 7.4214 6.51452 7.41528 6.5036 7.41528C6.49269 7.41528 6.48265 7.4214 6.47173 7.42315L6.46518 7.42403C6.45034 7.42621 6.43244 7.43277 6.43288 7.44807C6.43299 7.45453 6.4356 7.46069 6.44016 7.46526C6.44472 7.46983 6.45088 7.47244 6.45733 7.47255H6.54944C6.55597 7.47255 6.56223 7.46999 6.56689 7.46541C6.57154 7.46083 6.57421 7.4546 6.57433 7.44807ZM5.36372 7.51977C5.35875 7.54198 5.36185 7.56522 5.37245 7.58535C5.38118 7.56699 5.38118 7.54382 5.36372 7.51977ZM5.26418 7.53026C5.13059 7.47343 5.32879 7.41047 5.17948 7.40479C5.15591 7.48174 5.19782 7.52283 5.26418 7.53026ZM4.8634 7.88439C4.80665 7.81226 4.85467 7.72394 4.74902 7.71826C4.72021 7.67672 4.6783 7.64831 4.65036 7.68241C4.7643 7.68022 4.69052 7.79783 4.75164 7.8433C4.78089 7.83543 4.78439 7.80482 4.77478 7.77203C4.81189 7.83761 4.73374 7.99151 4.8634 7.88439ZM3.34894 7.61464L3.34763 7.61289V7.61464C3.32577 7.61313 3.30381 7.61401 3.28214 7.61727C3.27199 7.62598 3.26419 7.6371 3.25944 7.64962C3.25071 7.64962 3.24198 7.64962 3.23368 7.65399C3.27036 7.7423 3.30441 7.77072 3.34545 7.7834C3.34266 7.79009 3.3393 7.79652 3.33541 7.80264L3.35069 7.78515C3.39915 7.79826 3.45765 7.79564 3.5419 7.84286C3.49301 7.7904 3.45896 7.7423 3.42578 7.6999L3.43451 7.69028C3.41181 7.6623 3.41748 7.62033 3.34894 7.61464Z" fill="#212121"/>
<path d="M3.49476 7.70033C3.49432 7.69421 3.48821 7.69115 3.48253 7.68897C3.47642 7.68722 3.47162 7.68285 3.46551 7.68241H3.46289C3.45721 7.68285 3.45197 7.68722 3.4463 7.68897C3.44062 7.69115 3.43451 7.69421 3.43407 7.70033C3.43395 7.70213 3.4342 7.70393 3.43481 7.70562C3.43541 7.70732 3.43636 7.70887 3.43759 7.71018C3.43881 7.71149 3.4403 7.71254 3.44195 7.71325C3.4436 7.71396 3.44537 7.71433 3.44717 7.71432H3.4821C3.48385 7.71427 3.48558 7.71386 3.48718 7.71312C3.48878 7.71238 3.49021 7.71133 3.49139 7.71002C3.49258 7.70872 3.49348 7.70719 3.49406 7.70552C3.49464 7.70386 3.49487 7.70209 3.49476 7.70033ZM4.42553 7.5342C4.4168 7.52677 4.40806 7.52108 4.40021 7.5119C4.40894 7.52895 4.41767 7.5342 4.42553 7.5342Z" fill="#212121"/>
<path d="M4.46613 7.47693C4.45565 7.51059 4.44124 7.53464 4.42553 7.5342C4.47355 7.57355 4.53118 7.58535 4.55824 7.5342C4.5755 7.54004 4.59171 7.5486 4.60627 7.55956C4.60015 7.56787 4.59361 7.57224 4.58706 7.57224C4.60569 7.58875 4.62878 7.59939 4.65342 7.60284C4.68048 7.63345 4.70231 7.65968 4.74291 7.64962L4.76824 7.60721C4.81015 7.64481 4.82848 7.69028 4.87825 7.67804L4.93064 7.59148C4.90794 7.63869 4.8311 7.63039 4.77697 7.59279L4.79923 7.55562C4.79585 7.5625 4.79114 7.56863 4.78537 7.57366C4.77959 7.57869 4.77288 7.58251 4.76562 7.58492C4.73593 7.56043 4.71541 7.5259 4.72283 7.48699L4.70886 7.57224C4.68616 7.51016 4.62591 7.49398 4.57352 7.4778C4.57103 7.46569 4.57103 7.45319 4.57352 7.44108L4.56741 7.47606C4.51197 7.45813 4.467 7.43802 4.48446 7.35889C4.45478 7.40698 4.45914 7.4354 4.48053 7.45594C4.39628 7.41747 4.28626 7.42359 4.31376 7.30161C4.233 7.43015 4.38231 7.43671 4.46613 7.47693ZM3.28608 7.73794C3.28564 7.70296 3.25726 7.67673 3.23107 7.65356C3.20487 7.63039 3.18348 7.59891 3.15117 7.58579C3.13003 7.57726 3.1064 7.57726 3.08525 7.58579C3.05295 7.59891 3.03199 7.63039 3.00536 7.65356C2.97917 7.67629 2.95079 7.70296 2.95035 7.73794C2.95006 7.74981 2.95213 7.76163 2.95645 7.7727C2.96076 7.78377 2.96723 7.79387 2.97547 7.80242C2.98372 7.81096 2.99358 7.81778 3.00448 7.82247C3.01539 7.82716 3.02711 7.82963 3.03898 7.82975H3.19745C3.24984 7.82975 3.28651 7.78515 3.28608 7.73794ZM2.84732 7.87128L2.77223 7.84723L2.87395 7.96397C2.73861 7.82231 3.00492 7.89402 2.95384 7.79302C2.92765 7.84111 2.83073 7.77641 2.82899 7.81794C2.82331 7.81532 2.8172 7.81182 2.81152 7.81095L2.82899 7.82144C2.82899 7.83193 2.83553 7.84855 2.84732 7.87128ZM3.58687 7.47606C3.47642 7.34271 3.5956 7.49311 3.47118 7.49529C3.50523 7.56262 3.5454 7.47693 3.58687 7.47606ZM2.48977 7.79433L2.55613 7.83412C2.53845 7.81463 2.51533 7.80092 2.48977 7.79477V7.79433ZM2.46881 7.5154C2.41206 7.46032 2.55613 7.27145 2.34832 7.34665C2.34963 7.41223 2.40507 7.48567 2.46881 7.5154ZM11.8499 7.43365L11.9001 7.44982C11.8913 7.43321 11.8664 7.4249 11.8499 7.43365ZM10.3367 7.32566L10.3332 7.25833L10.3297 7.32566C10.3297 7.32741 10.331 7.32916 10.3332 7.32916C10.3341 7.32916 10.335 7.32879 10.3357 7.32813C10.3363 7.32748 10.3367 7.32659 10.3367 7.32566ZM11.3255 7.4813L11.3692 7.49048C11.3631 7.48569 11.356 7.48236 11.3484 7.48077C11.3409 7.47918 11.333 7.47936 11.3255 7.4813ZM6.06005 7.95041C6.081 7.94123 6.07227 7.91063 6.07009 7.88789L6.06965 7.88483C6.06747 7.86385 6.06442 7.83543 6.04346 7.83543C6.02251 7.83543 6.01945 7.86385 6.01727 7.88483L6.01683 7.88746C6.01421 7.91019 6.00591 7.94123 6.02643 7.95041C6.02944 7.95182 6.03272 7.95257 6.03604 7.9526H6.05088C6.05405 7.95251 6.05718 7.95176 6.06005 7.95041ZM6.65248 7.50666C6.62192 7.48392 6.62061 7.4061 6.53635 7.39168C6.62104 7.44458 6.55381 7.50098 6.65248 7.50666ZM6.38661 7.48917C6.38704 7.47518 6.37045 7.46906 6.35692 7.46731L6.35037 7.466C6.34077 7.46469 6.3316 7.45901 6.32156 7.45901C6.31195 7.45901 6.30278 7.46469 6.29274 7.466L6.28663 7.46687C6.27266 7.46906 6.25607 7.47474 6.25694 7.48873C6.25738 7.5001 6.26568 7.51103 6.27921 7.51103H6.3639C6.377 7.51103 6.38573 7.50054 6.38661 7.48917ZM5.27597 7.55475C5.27152 7.57498 5.27414 7.59612 5.28339 7.61465C5.29212 7.5976 5.29212 7.57661 5.27597 7.55475Z" fill="#212121"/>
<path d="M5.20524 7.82406L5.18341 7.76547C5.22008 7.75629 5.26854 7.78296 5.28644 7.81357L5.24235 7.69159L5.30565 7.66667C5.27247 7.79171 5.55624 7.74624 5.44404 7.84942L5.43531 7.82406C5.4065 7.821 5.37899 7.84942 5.35804 7.88046L5.34188 7.83368C5.28076 7.82712 5.22226 7.97576 5.24453 7.94429C5.2764 7.93904 5.30827 7.92024 5.33534 7.91893C5.32399 7.94254 5.32049 7.95784 5.32966 7.94516C5.34354 7.94232 5.35713 7.93823 5.37026 7.93292C5.37463 7.93729 5.37812 7.94254 5.38205 7.94953L5.3755 7.93117C5.41654 7.91587 5.45408 7.90057 5.47897 7.95041L5.45365 7.87652C5.46718 7.86035 5.46238 7.80832 5.49294 7.79171L5.54096 7.84679L5.51913 7.86515C5.54271 7.8822 5.55319 7.87958 5.55973 7.86865L5.5868 7.89926C5.58706 7.87888 5.58045 7.859 5.56803 7.84286C5.57327 7.81969 5.57807 7.79039 5.60077 7.77815L5.70206 7.89532C5.70729 7.76416 5.42702 7.70689 5.37201 7.58579C5.36414 7.59976 5.35254 7.61126 5.3385 7.61898C5.32446 7.62671 5.30855 7.63035 5.29255 7.62951C5.28912 7.62488 5.28619 7.61989 5.28382 7.61464C5.28149 7.61911 5.27855 7.62322 5.27509 7.62688C5.25588 7.61901 5.2406 7.60021 5.24016 7.5648C5.18908 7.57486 5.16944 7.58841 5.16376 7.60502L5.16245 7.59628C4.98783 7.63038 5.20262 7.7117 5.08998 7.79127C5.12098 7.75848 5.18428 7.78996 5.20524 7.82406ZM5.18472 7.56436C5.06248 7.51234 5.24409 7.45463 5.10701 7.44894C5.08518 7.51977 5.1236 7.55781 5.18472 7.56436ZM4.97429 7.91718C4.99961 7.89488 4.98433 7.85422 4.97909 7.821C4.97385 7.78733 4.96818 7.74361 4.93456 7.74055H4.92671C4.89309 7.74361 4.88741 7.78733 4.88174 7.821C4.87694 7.85422 4.86166 7.89488 4.88698 7.91718C4.89469 7.92399 4.90463 7.92773 4.91492 7.92767H4.94635C4.95661 7.92757 4.9665 7.92386 4.97429 7.91718ZM4.01776 7.91805C4.0003 7.91543 3.98022 7.91805 3.95446 7.93685C3.9767 7.9354 3.99833 7.92897 4.01776 7.91805Z" fill="#212121"/>
<path d="M4.15496 7.77154L4.15671 7.7698L4.15583 7.77198L4.15496 7.77154ZM4.41952 7.91363C4.42453 7.90995 4.42894 7.90553 4.43262 7.90052L4.42258 7.90489C4.42694 7.89309 4.43873 7.8839 4.46405 7.87953C4.45008 7.92631 4.54962 7.97134 4.59415 7.90839C4.39027 7.99757 4.55966 7.6911 4.51382 7.67667C4.52386 7.67099 4.54089 7.67886 4.55966 7.68017C4.58455 7.71996 4.55835 7.79428 4.60594 7.82969C4.66051 7.81351 4.633 7.72651 4.58847 7.67536L4.58978 7.67492C4.58455 7.6688 4.58018 7.66705 4.57494 7.66268C4.57081 7.65863 4.56644 7.65483 4.56184 7.65132C4.46798 7.58268 4.45838 7.7746 4.34137 7.74007C4.35098 7.70203 4.35884 7.66837 4.35229 7.65438L4.35098 7.64738C4.36844 7.64432 4.39857 7.66268 4.42869 7.64651C4.38023 7.59317 4.35011 7.59404 4.32391 7.61328C4.29554 7.59011 4.25755 7.56737 4.27502 7.5101C4.16194 7.57043 4.24882 7.6006 4.28811 7.65175C4.25668 7.6911 4.22306 7.73482 4.1602 7.71821C4.14873 7.71113 4.13641 7.70554 4.12353 7.70159C4.13802 7.68842 4.15039 7.67309 4.1602 7.65612C4.17373 7.6605 4.18814 7.66705 4.20124 7.66705C4.19949 7.53502 4.14928 7.53021 4.09297 7.5359C4.08118 7.51928 4.0755 7.49742 4.08511 7.46638C4.02923 7.49655 4.01875 7.51928 4.02748 7.54114C4.01175 7.54114 3.99633 7.53675 3.98295 7.52846C3.97395 7.52229 3.96624 7.51442 3.96025 7.50529C3.95007 7.48953 3.94282 7.47205 3.93886 7.4537L3.95414 7.44583L3.89171 7.36189C3.86988 7.42266 3.88909 7.46245 3.92445 7.49392C3.88647 7.49086 3.8415 7.50442 3.80265 7.49917C3.76335 7.45239 3.77121 7.46594 3.7699 7.48868C3.74807 7.47556 3.72974 7.45152 3.71882 7.40517L3.73541 7.39643L3.66731 7.30462C3.63064 7.40517 3.69787 7.45414 3.7699 7.49436C3.76685 7.51316 3.75681 7.53502 3.71228 7.5359C3.74284 7.59535 3.77776 7.5254 3.81443 7.51928C3.84451 7.53353 3.87105 7.55429 3.89214 7.58005C3.85722 7.59929 3.80745 7.61415 3.77907 7.63907L3.69612 7.52409C3.64635 7.56956 3.50272 7.58442 3.52149 7.67011C3.51014 7.6911 3.52237 7.70203 3.54114 7.71296L3.54201 7.71383C3.52648 7.71538 3.51083 7.71538 3.4953 7.71383C3.53023 7.73569 3.56646 7.75406 3.60313 7.7698C3.60336 7.78713 3.59783 7.80404 3.58742 7.81789L3.62278 7.7781C3.63806 7.78422 3.65334 7.79122 3.66775 7.79603C3.67779 7.89789 3.57912 7.95036 3.52804 7.8498C3.42152 7.92762 3.66993 7.92325 3.54638 7.96784C3.77994 8.05703 3.51887 7.83319 3.80963 7.82794C3.85067 7.86336 3.8367 7.89002 3.80963 7.90707C3.78914 7.8983 3.77275 7.88204 3.76379 7.86161C3.72581 7.88915 3.73672 7.90533 3.75812 7.918C3.75042 7.92145 3.7431 7.9257 3.73629 7.93068C3.74811 7.92988 3.75982 7.92782 3.77121 7.92456C3.80439 7.93899 3.8415 7.94817 3.78082 7.97047C3.90131 8.01594 3.87817 7.97091 3.88254 7.92238C3.89433 7.90732 3.90267 7.88986 3.90699 7.87122C3.91368 7.86583 3.92101 7.86128 3.92882 7.85767C3.96112 7.90402 4.02137 7.86773 4.04189 7.89309C4.03671 7.90346 4.02848 7.91201 4.01831 7.91757C4.0289 7.91954 4.03918 7.92292 4.04887 7.92762C4.04794 7.93804 4.04649 7.9484 4.04451 7.95866C4.10999 7.95779 4.14274 7.92587 4.17286 7.89177C4.19469 7.89396 4.21652 7.88915 4.22961 7.89658L4.18596 7.99014C4.23747 7.99539 4.24708 7.9814 4.24708 7.96041C4.27782 7.95895 4.30712 7.94691 4.33002 7.92631C4.35105 7.93562 4.3749 7.93625 4.39638 7.92806L4.36713 7.99058C4.4527 7.99932 4.41385 7.95036 4.41952 7.91363ZM4.5876 7.57175C4.57974 7.56519 4.57188 7.5595 4.5649 7.5512C4.57276 7.56694 4.58018 7.57131 4.5876 7.57175ZM3.16394 7.9661C3.03952 7.83581 3.28444 7.90139 3.23729 7.80914C3.20804 7.86423 3.07663 7.75755 3.13993 7.88084L3.07052 7.85898L3.16394 7.9661ZM2.80945 7.84718L2.79198 7.78641C2.7894 7.77976 2.78487 7.77404 2.77899 7.77001C2.77311 7.76598 2.76615 7.76382 2.75902 7.76382C2.7519 7.76382 2.74494 7.76598 2.73905 7.77001C2.73317 7.77404 2.72864 7.77976 2.72606 7.78641L2.7086 7.84674C2.7064 7.85222 2.70556 7.85814 2.70617 7.86401C2.70677 7.86988 2.70879 7.87552 2.71206 7.88043C2.71533 7.88534 2.71974 7.88937 2.72492 7.89219C2.7301 7.895 2.73589 7.89651 2.74178 7.89658H2.7767C2.80159 7.89658 2.81861 7.87035 2.80945 7.84674V7.84718ZM9.83912 7.37544L9.83562 7.31424L9.83257 7.37544C9.83257 7.37763 9.83388 7.37894 9.83562 7.37894C9.8361 7.37902 9.83659 7.37898 9.83704 7.37883C9.8375 7.37868 9.83792 7.37842 9.83826 7.37808C9.8386 7.37774 9.83885 7.37733 9.839 7.37687C9.83915 7.37641 9.83919 7.37592 9.83912 7.37544ZM2.50734 7.84587C2.48402 7.83485 2.46229 7.82073 2.44273 7.8039C2.45699 7.79484 2.4741 7.79141 2.49075 7.79428L2.40562 7.74313C2.41042 7.75362 2.4126 7.76499 2.4126 7.77635C2.26723 7.63077 2.1607 7.35752 1.99742 7.41217C1.93012 7.41484 1.86305 7.4217 1.7966 7.43272C1.73766 7.37151 1.67567 7.33566 1.60276 7.36014C1.39496 7.36364 1.12254 7.4454 0.96537 7.42266L0.972792 7.3973C0.928755 7.42085 0.880264 7.43485 0.830469 7.4384L0.825231 7.41086C0.707356 7.35577 0.63052 7.34834 0.53884 7.33216C0.534474 7.35752 0.531855 7.38331 0.530108 7.41042C0.46265 7.4156 0.39936 7.44512 0.351987 7.49349L0.32492 7.35796C0.196568 7.2985 0.113183 7.29019 0.0127715 7.2727C-0.0623188 7.72914 0.234986 8.53226 0.298289 8.65555L0.302218 8.65905C0.298284 8.62121 0.299017 8.58304 0.304401 8.54538C0.436246 8.47499 0.575948 8.42952 0.719144 8.39499C0.754069 8.49554 0.785066 8.57118 0.800783 8.60047L0.804275 8.60396C0.800786 8.56932 0.801519 8.53438 0.806458 8.49991C1.25875 8.25814 1.81581 8.33378 2.26024 8.07583C2.29909 8.11431 2.32835 8.05922 2.36807 8.13617C2.35061 8.02774 2.71515 7.99014 2.50734 7.84587ZM78.3498 0.460316C78.3445 0.467334 78.3408 0.47546 78.3391 0.484088C78.3374 0.492717 78.3376 0.501627 78.3398 0.510156L78.3498 0.460316ZM78.3948 0.325222C78.4341 0.193189 78.6174 0.224667 78.6694 0.32872C78.6921 0.205431 78.5257 0.208928 78.6318 0.0847645L78.507 0.0869505L78.5611 0.0169991C78.5192 0.0379845 78.4694 -0.0245345 78.4057 0.010004C78.555 -0.0275949 78.3437 0.264889 78.5415 0.156027C78.3952 0.236471 78.3738 0.335278 78.3498 0.460316C78.3791 0.420094 78.4589 0.399983 78.5205 0.366319L78.3948 0.325222ZM78.3336 0.623827L78.3494 0.571364C78.3328 0.580108 78.3249 0.606339 78.3336 0.623827ZM78.2302 2.22353C78.2376 2.22353 78.2276 2.21609 78.2201 2.21609H78.1782C78.1708 2.21609 78.1608 2.22353 78.1682 2.22353H78.2302Z" fill="#212121"/>
<path d="M79.3355 1.70331L79.4084 1.59751C79.2805 1.42525 79.1408 1.10523 78.9251 1.13583C78.971 0.933846 78.9622 0.917232 78.9679 0.759842C78.9293 0.737248 78.8932 0.71073 78.8601 0.680709L78.8592 0.0109253L78.8396 0.66191C78.7536 0.581466 78.6837 0.497524 78.496 0.445935C78.5235 0.585838 78.3807 0.509329 78.3331 0.624311L78.3017 0.729238L78.5488 0.593708C78.5574 0.636734 78.5512 0.681403 78.5313 0.720494C78.5051 0.71175 78.475 0.699072 78.4405 0.717871C78.4973 0.703444 78.4973 0.741042 78.4907 0.783451C78.4327 0.857337 78.3589 0.92073 78.3903 1.03353L78.4104 1.03921C78.4021 1.06932 78.3953 1.09982 78.3899 1.13058C78.4165 1.09386 78.4899 1.0755 78.5462 1.04446L78.5274 1.03834C78.5837 1.02172 78.6204 0.995928 78.7326 1.08774C78.7313 1.14326 78.713 1.17168 78.6885 1.18655C78.6377 1.15531 78.5825 1.13188 78.5248 1.11703C78.5268 1.1274 78.5277 1.13795 78.5274 1.14851C78.3676 1.18261 78.434 1.18611 78.2292 1.29934C78.2707 1.33563 78.32 1.2906 78.3785 1.24382C78.375 1.24918 78.3728 1.25536 78.3723 1.26178C78.3717 1.26821 78.3728 1.27466 78.3755 1.28054L78.3886 1.23551C78.4296 1.20316 78.4746 1.17212 78.5244 1.16993C78.5043 1.22502 78.4108 1.19485 78.3755 1.28054L78.3467 1.37716L78.3929 1.35181L78.3886 1.3658L78.4877 1.31115C78.4903 1.4423 78.3742 1.46198 78.2895 1.42001C78.327 1.62024 78.1013 1.54636 78.2205 1.70069C78.2777 1.64735 78.3851 1.61019 78.4008 1.55729L78.3938 1.62724L78.4222 1.61194C78.4222 1.62505 78.4239 1.63992 78.4283 1.65566C78.441 1.65995 78.454 1.66317 78.4672 1.66527C78.4152 1.72736 78.227 1.62156 78.2646 1.83097C78.2716 1.76102 78.3393 1.81217 78.3895 1.82791C78.3803 1.83447 78.3733 1.8419 78.3654 1.84846C78.3454 1.86201 78.3165 1.87906 78.2803 1.89917C78.289 1.90661 78.2982 1.91098 78.3074 1.91142C78.2546 1.98093 78.2231 2.04257 78.1101 2.02596C78.0965 1.96694 78.141 1.95164 78.1808 1.92847C78.1575 1.93589 78.1331 1.9393 78.1087 1.93852C78.0459 2.10903 78.269 2.07143 78.2506 2.17461C78.2467 2.17862 78.2438 2.18345 78.242 2.18874C78.2402 2.19403 78.2395 2.19965 78.2401 2.20521L78.2327 2.2192L78.2436 2.22008C78.2509 2.2372 78.2604 2.25324 78.272 2.26773C78.282 2.25869 78.2927 2.25037 78.3039 2.24281C78.2589 2.32806 78.2502 2.40151 78.2419 2.47103L78.2353 2.47584C78.2139 2.48263 78.1915 2.48587 78.169 2.48545C78.1424 2.55803 78.1725 2.58907 78.2105 2.61137C78.1973 2.64523 78.1789 2.67681 78.1559 2.70493L78.2864 2.7364L78.2829 2.74253L78.3179 2.74427L78.3231 2.74559C78.1768 2.77488 78.1585 2.86319 78.0878 2.95107L78.1279 3.13382C78.114 3.17491 78.0939 3.20726 78.0472 3.16005C78.0812 3.22825 78.0935 3.19983 78.1555 3.23962L78.1563 3.24005H78.066L78.0694 3.55527C77.9743 3.59681 77.8612 3.61779 77.8389 3.6908C77.7704 3.91727 77.8175 4.06067 77.8961 4.1927C77.859 4.42879 77.9752 4.55864 78.0817 4.72171L78.1031 6.74899L78.0694 6.77653C78.0839 6.77872 78.093 6.78265 78.1031 6.78659L78.1175 8.09949L78.1127 8.50739C78.101 8.50673 78.0894 8.50468 78.0782 8.50127C78.0908 8.51001 78.1022 8.51701 78.1122 8.52094L78.1074 8.93672L78.1013 8.94065C78.1035 8.94196 78.1057 8.94153 78.1074 8.94284L78.1057 9.11553L78.0249 9.16712C78.0555 9.18242 78.0812 9.18548 78.1048 9.18111L78.0943 10.1058C78.0384 10.09 77.9865 10.0747 78.0171 10.2072C78.0438 10.2078 78.0701 10.2008 78.093 10.1871L78.09 10.452C78.021 10.4713 77.883 10.3467 77.9319 10.5552C77.9874 10.5592 78.0507 10.5194 78.09 10.4673L78.0869 10.7174C78.004 10.7791 77.9446 10.846 77.9647 10.9356C77.9615 11.0076 77.9628 11.0797 77.9686 11.1516C77.9049 11.211 77.8647 11.2757 77.8835 11.3557C77.8726 11.5804 77.9398 11.8804 77.9136 12.0513L77.8887 12.0426C77.9132 12.0981 77.9236 12.1492 77.9267 12.1986L77.8992 12.2043C77.8451 12.3329 77.8346 12.4172 77.8215 12.52C77.8459 12.5243 77.8717 12.5274 77.8983 12.5287C77.9036 12.6013 77.9334 12.67 77.983 12.7233L77.8507 12.7569C77.7979 12.9016 77.7948 12.9974 77.7826 13.1111C77.9765 13.1329 78.2284 13.0761 78.4628 13.0026L78.4659 13.0673L78.468 13.0013L78.5781 12.965C78.768 12.8995 78.9352 12.8321 79.0373 12.7867H79.3119L79.2512 8.09993L79.3041 3.83289C79.3726 3.82196 79.4359 3.80141 79.4556 3.72053C79.4481 3.74458 79.4564 3.76076 79.4717 3.79267L79.5778 3.73452L79.4088 3.66457C79.415 3.5203 79.5459 3.63047 79.6062 3.55746L79.607 3.59768C79.5979 3.5015 79.6974 3.50762 79.7498 3.45865C79.5896 3.44554 79.7254 3.37034 79.6114 3.37209L79.6939 3.30651L79.7018 3.32268C79.8537 3.27984 79.7612 3.20901 79.7978 3.12769C79.7913 3.09578 79.7812 3.06474 79.7716 3.0337C79.7939 3.02321 79.8162 3.01315 79.8332 2.99654C79.7882 2.99348 79.7651 2.98517 79.7529 2.97511L79.7385 2.94014C79.7389 2.9279 79.7398 2.91609 79.7267 2.90953L79.7136 2.87806L79.7721 2.83171L79.7808 2.8492C79.9463 2.80198 79.845 2.72504 79.8856 2.63672C79.8039 2.26161 79.5398 1.94377 79.3355 1.70331Z" fill="#212121"/>
<path d="M78.3808 1.17606L78.3899 1.13103C78.3851 1.13744 78.3818 1.14485 78.3802 1.15272C78.3786 1.16059 78.3788 1.16827 78.3808 1.17606ZM78.2795 2.74734C78.286 2.74734 78.2769 2.74034 78.2703 2.74034H78.2319C78.2253 2.74034 78.2162 2.74734 78.2227 2.74734H78.2795Z" fill="#212121"/>
</g>
</g>
<defs>
<clipPath id="clip0_3057_54161">
<rect width="152.8" height="13.1159" fill="white"/>
</clipPath>
<clipPath id="clip1_3057_54161">
<rect width="152.8" height="13.1159" fill="white"/>
</clipPath>
</defs>
</svg>
